<?xml version="1.0" standalone="no"?>
<!DOCTYPE svg PUBLIC "-//W3C//DTD SVG 20010904//EN"
 "http://www.w3.org/TR/2001/REC-SVG-20010904/DTD/svg10.dtd">
<svg version="1.0" xmlns="http://www.w3.org/2000/svg"
 width="1079.000000pt" height="1079.000000pt" viewBox="0 0 1079.000000 1079.000000"
 preserveAspectRatio="xMidYMid meet">
<metadata>
Created by potrace 1.14, written by Peter Selinger 2001-2017
</metadata>
<g transform="translate(0.000000,1079.000000) scale(0.100000,-0.100000)"
fill="#000000" stroke="none">
<path d="M2137 6558 c-26 -22 -40 -29 -48 -21 -16 16 -73 5 -127 -25 -108 -60
-115 -78 -41 -102 51 -16 80 -36 34 -23 -62 17 -290 3 -325 -19 -14 -9 -52
-24 -85 -33 -33 -9 -73 -24 -90 -32 -36 -18 -175 -152 -175 -169 0 -27 27 -35
99 -26 77 9 120 -1 52 -13 -22 -4 -41 -11 -41 -17 0 -10 28 -6 125 19 62 16
66 17 125 14 19 -1 83 2 141 5 99 6 110 5 154 -17 56 -28 129 -109 148 -165
22 -61 28 -94 19 -94 -5 0 -35 25 -67 56 -60 58 -141 104 -185 104 -14 0 -45
9 -69 20 -51 24 -51 24 -51 6 0 -7 25 -24 56 -38 48 -22 52 -26 32 -32 -41
-11 -69 -6 -99 15 -16 11 -29 16 -29 10 0 -5 8 -15 18 -20 16 -10 15 -11 -3
-12 -11 -1 -23 -1 -27 0 -5 0 -8 -3 -8 -9 0 -13 136 -6 178 10 36 13 58 4 115
-49 47 -43 144 -184 152 -220 9 -40 10 -149 2 -158 -3 -3 -254 -5 -558 -5
l-552 1 6 -77 c4 -42 18 -119 32 -171 127 -470 524 -823 1007 -897 124 -19
324 -14 443 11 340 72 631 278 812 575 86 141 150 334 160 482 l6 77 -544 0
c-299 0 -565 0 -591 0 -46 1 -46 1 -53 41 -4 23 -4 67 0 98 l7 58 58 32 c36
20 61 29 65 22 3 -5 15 -10 25 -10 22 0 39 22 22 28 -24 8 0 22 36 22 21 0 48
7 61 16 18 13 46 16 134 15 74 -1 126 3 152 12 22 8 57 12 78 9 29 -3 46 1 69
18 16 12 36 19 43 16 8 -3 22 2 30 11 15 14 14 18 -11 44 -15 16 -43 32 -61
35 -18 3 -36 10 -39 15 -9 14 -78 10 -100 -6 -10 -8 -26 -15 -35 -15 -22 0
-44 -26 -29 -35 27 -17 3 -25 -72 -25 -79 0 -86 -2 -143 -38 -47 -30 -75 -40
-125 -45 -35 -4 -81 -16 -102 -27 -21 -11 -43 -20 -49 -20 -31 0 51 180 98
218 31 24 50 29 176 43 90 11 152 13 172 8 16 -5 48 -9 71 -9 22 0 65 -7 95
-16 30 -9 74 -18 99 -20 128 -10 176 -21 207 -43 37 -28 88 -30 112 -6 15 14
12 19 -28 55 -25 22 -52 40 -62 40 -9 0 -22 12 -27 28 -6 15 -21 40 -34 56
-22 26 -33 30 -99 35 -78 7 -102 16 -133 50 -16 17 -31 21 -82 21 -63 0 -86
-12 -65 -33 17 -17 13 -36 -13 -68 -13 -15 -26 -33 -28 -38 -1 -6 -46 -13 -98
-16 -52 -3 -113 -8 -135 -10 l-40 -5 23 18 c13 10 65 36 115 58 53 23 104 53
123 72 23 24 45 35 74 39 22 3 43 10 46 14 10 17 46 9 76 -16 31 -26 53 -32
63 -15 3 6 22 10 41 10 21 0 37 6 40 14 12 32 -79 146 -116 146 -5 0 -10 7
-10 15 0 10 -16 16 -50 21 -27 4 -50 10 -50 14 0 10 -91 7 -107 -3 -8 -5 -18
2 -29 18 -9 14 -26 25 -38 25 -12 0 -32 7 -45 16 -14 10 -33 14 -50 11 -17 -4
-37 0 -50 10 -12 8 -25 12 -28 9 -4 -3 -14 1 -24 10 -13 12 -28 15 -56 10 -65
-12 -148 -14 -159 -5 -6 5 -31 11 -55 14 -39 5 -48 1 -82 -27z m8 -170 c8 -7
20 -18 27 -24 7 -6 33 -34 57 -63 25 -29 58 -59 74 -67 31 -17 66 -82 67 -125
0 -14 -10 -34 -21 -45 -31 -27 -83 -110 -112 -179 l-25 -59 -11 39 c-6 22 -11
48 -11 58 0 10 -5 28 -12 40 -24 46 -122 143 -172 172 -52 30 -116 79 -116 89
0 8 71 42 105 50 52 12 107 54 103 79 -2 15 -11 23 -28 26 -23 3 -24 4 -5 12
30 12 65 10 80 -3z m99 -64 c3 -8 2 -12 -4 -9 -6 3 -10 10 -10 16 0 14 7 11
14 -7z m124 -65 c2 -13 9 -30 14 -37 6 -7 8 -15 4 -19 -7 -8 -6 -9 -39 49 -33
57 -34 65 -4 46 12 -9 24 -26 25 -39z m-65 20 c6 -22 -1 -24 -25 -5 -23 17
-23 21 1 23 11 1 21 -6 24 -18z m327 -38 l0 -49 -52 -25 c-29 -13 -55 -23 -57
-21 -5 5 60 118 77 132 26 20 32 14 32 -37z m63 43 c3 -4 -3 -24 -14 -46 -11
-22 -22 -38 -25 -35 -2 2 -6 23 -9 46 -3 37 -2 41 19 41 12 0 25 -3 29 -6z
m-201 -114 c-18 -28 -72 -80 -83 -80 -12 0 -15 82 -4 117 8 28 14 33 38 31 20
-2 32 4 40 17 10 18 12 16 18 -20 5 -28 2 -47 -9 -65z m58 92 c0 -5 -7 -17
-15 -28 -14 -18 -14 -18 -15 9 0 17 5 27 15 27 8 0 15 -4 15 -8z m188 -1 c11
-6 7 -13 -16 -30 l-30 -21 11 30 c12 32 15 34 35 21z m-338 -11 c0 -5 -2 -10
-4 -10 -3 0 -8 5 -11 10 -3 6 -1 10 4 10 6 0 11 -4 11 -10z m-512 -86 c1 0
-22 -1 -50 -1 -36 -1 -59 4 -72 15 -17 16 -16 17 25 22 35 5 49 1 69 -15 14
-11 26 -20 28 -21z m-142 10 c18 -14 18 -15 -6 -8 -31 8 -50 24 -29 24 8 0 24
-7 35 -16z m-87 -18 c41 -21 42 -23 20 -29 -18 -5 -31 1 -54 23 -35 36 -26 37
34 6z m-49 -17 c0 -6 -4 -8 -9 -5 -5 3 -30 -2 -55 -10 -36 -12 -53 -14 -69 -6
-22 11 -22 11 3 12 14 0 41 9 60 19 35 19 70 14 70 -10z m1213 14 c-7 -2 -13
-11 -13 -19 0 -8 -7 -14 -17 -14 -14 0 -14 2 2 20 10 11 23 20 29 19 6 0 6 -3
-1 -6z m67 -58 c7 -8 20 -15 28 -15 12 0 13 -3 4 -12 -9 -9 -21 -9 -50 0 -22
7 -52 12 -68 12 l-29 1 25 14 c33 19 74 19 90 0z m180 -40 c-14 -8 -31 -17
-38 -21 -15 -8 -106 5 -98 14 8 7 79 19 126 21 l35 1 -25 -15z m-170 -150 c0
-4 -19 -15 -42 -25 -34 -15 -66 -20 -147 -20 -103 0 -104 0 -86 20 14 16 33
20 109 23 50 1 108 4 129 5 20 1 37 0 37 -3z m67 -19 c-10 -8 -28 -11 -40 -8
-20 6 -19 7 8 13 46 10 51 9 32 -5z m-655 -412 l38 -34 140 0 c77 0 140 4 140
8 0 18 44 30 68 19 48 -22 31 -97 -23 -97 -23 0 -59 32 -48 43 3 4 -59 7 -139
7 l-146 0 -48 40 c-52 43 -70 50 -60 24 6 -14 4 -15 -9 -4 -17 14 -67 21 -59
8 3 -4 -1 -8 -8 -8 -7 -1 -2 -7 12 -15 32 -18 46 -19 31 -1 -9 11 -9 16 0 22
8 5 9 3 4 -6 -5 -8 -4 -11 3 -6 6 3 13 2 17 -4 11 -17 28 -11 21 8 -6 16 -5
16 7 0 8 -10 16 -15 19 -13 3 3 5 -7 6 -22 0 -15 0 -45 1 -65 l1 -38 267 0
c260 0 268 -1 300 -22 18 -13 33 -27 33 -31 0 -5 5 -5 11 -2 18 12 55 -4 69
-29 11 -22 11 -29 -4 -51 -32 -48 -100 -22 -94 37 2 27 -2 37 -26 55 -28 22
-36 23 -288 22 -216 0 -262 3 -281 16 -12 8 -16 15 -9 15 6 0 12 5 12 11 0 5
-4 8 -9 5 -5 -3 -12 1 -15 10 -3 8 -2 13 2 10 5 -3 8 5 7 17 -1 12 2 27 7 34
14 17 -6 24 -28 9 -15 -12 -16 -16 -5 -30 7 -9 11 -16 7 -16 -3 0 -9 0 -13 0
-5 0 -9 5 -9 10 -1 6 -2 15 -3 20 0 6 -6 10 -12 10 -5 0 -7 -5 -3 -12 4 -7 3
-8 -5 -4 -6 4 -8 13 -5 19 4 7 4 9 -1 5 -4 -4 -15 -2 -24 4 -13 10 -14 10 -3
-2 14 -16 16 -34 3 -26 -5 3 -8 -6 -8 -19 0 -14 3 -25 8 -25 5 0 8 3 8 8 -5
29 2 34 21 17 11 -10 17 -22 13 -28 -4 -6 0 -8 10 -4 9 3 18 -1 21 -10 9 -21
-2 -33 -22 -26 -15 6 -16 5 -2 -13 14 -18 14 -18 -6 -1 -11 9 -25 14 -29 10
-5 -5 -3 0 4 10 7 9 11 17 8 17 -3 0 -13 3 -23 7 -11 4 -15 3 -11 -5 9 -14
-40 -68 -74 -80 -14 -6 -84 -9 -156 -9 -72 1 -131 0 -131 -3 3 -36 -30 -55
-66 -38 -20 9 -26 19 -26 44 0 52 54 73 87 34 16 -18 30 -20 138 -20 94 0 128
4 155 18 32 16 69 67 57 79 -3 3 -133 5 -288 4 -308 -1 -313 -2 -343 -60 -13
-25 -13 -31 -1 -47 19 -25 19 -44 -2 -66 -23 -26 -59 -23 -79 7 -14 22 -15 30
-4 50 7 14 22 25 32 25 11 0 23 13 32 34 7 18 28 43 44 55 30 21 37 22 320 19
l289 -3 2 48 c1 27 -2 47 -9 47 -5 0 -10 -4 -10 -8 0 -18 -54 -32 -122 -32
-51 0 -76 -4 -89 -16 -22 -20 -59 -10 -59 16 0 27 34 44 50 25 9 -11 34 -15
96 -15 69 0 87 3 102 19 14 15 32 19 96 19 77 1 81 0 118 -34z m-61 -37 c-6
-8 -9 -17 -6 -21 3 -3 -1 -1 -7 4 -10 9 -10 13 2 20 21 13 24 12 11 -3z m-87
-129 c4 7 10 12 14 12 14 0 74 -60 61 -60 -11 0 -11 -2 1 -10 8 -5 10 -10 4
-10 -15 0 -36 25 -27 33 3 4 1 7 -6 7 -8 0 -10 -7 -6 -21 5 -16 4 -19 -5 -14
-9 5 -11 4 -6 -4 4 -6 12 -9 17 -6 5 4 9 3 9 -2 0 -4 13 -8 30 -8 26 -1 28 1
15 15 -8 9 -12 20 -8 24 11 10 12 37 2 30 -5 -3 -6 -10 -3 -16 4 -6 2 -8 -3
-5 -14 9 -4 59 11 54 6 -2 14 -29 17 -61 7 -60 24 -88 72 -113 26 -13 31 -13
46 1 10 9 25 16 33 16 26 0 48 -11 42 -21 -3 -5 0 -9 5 -9 6 0 11 -13 11 -30
0 -40 -40 -68 -76 -52 -13 7 -29 23 -34 36 -5 14 -26 34 -47 45 -21 10 -46 32
-55 48 l-17 28 -2 -25 c-4 -77 6 -97 74 -136 48 -28 69 -47 87 -81 13 -25 26
-40 28 -34 7 20 42 -19 42 -45 0 -53 -67 -73 -96 -29 -16 24 -12 65 7 65 15 0
0 41 -25 68 -11 13 -35 30 -52 37 -34 14 -84 60 -85 78 0 7 -2 24 -4 39 -2 15
1 30 6 33 20 13 8 32 -22 33 -28 1 -30 -2 -25 -23 4 -14 1 -27 -6 -31 -8 -5
-9 -2 -4 12 5 14 4 16 -4 8 -9 -9 -9 -17 -1 -32 6 -10 7 -22 4 -26 -10 -9 -12
-56 -3 -51 4 3 6 -15 5 -39 -1 -40 -8 -51 -66 -111 -50 -52 -64 -73 -64 -97 0
-29 -25 -58 -52 -58 -16 0 -53 40 -53 57 0 24 41 55 65 50 18 -3 35 8 74 47
65 66 74 92 72 199 -1 58 2 86 9 82 5 -3 10 -2 10 3 0 5 -9 12 -20 15 -12 3
-20 0 -20 -7 0 -16 -39 -52 -65 -60 -11 -3 -26 -19 -32 -36 -9 -24 -17 -30
-40 -30 -16 0 -34 5 -41 12 -15 15 -15 61 0 76 14 14 68 16 68 2 0 -31 84 12
98 51 7 17 10 17 33 5 l26 -13 -1 43 c-1 49 -2 50 -22 29 -9 -8 -11 -15 -5
-15 6 0 11 -7 11 -16 0 -34 -25 -5 -27 32 -2 27 0 33 6 20 5 -14 10 -16 15 -8z
m406 -34 c0 -14 7 -27 15 -30 21 -8 19 -31 -4 -43 -29 -16 -48 11 -31 43 7 14
9 33 5 46 -5 15 -4 20 4 16 6 -4 11 -18 11 -32z m-337 -77 c4 3 7 4 7 1 0 -3
-8 -12 -17 -19 -10 -7 -15 -9 -11 -5 4 5 2 16 -5 25 -10 14 -10 14 4 4 9 -7
19 -10 22 -6z m-8 -112 c1 -41 -3 -75 -7 -75 -4 0 -8 5 -8 11 0 5 -4 8 -9 5
-5 -4 -8 2 -7 11 2 9 8 19 15 21 8 3 6 9 -7 18 -19 13 -23 36 -10 50 4 3 4 12
1 20 -3 9 2 14 13 14 17 0 19 -9 19 -75z m5 -119 c0 -13 24 -46 58 -81 46 -47
65 -59 84 -57 48 6 76 -49 42 -82 -36 -36 -105 4 -90 51 4 14 -9 34 -49 73
-30 30 -55 60 -55 67 0 6 -5 15 -12 19 -7 5 -8 3 -3 -6 4 -7 2 -16 -6 -21 -10
-6 -10 -9 -2 -9 9 0 12 -23 11 -80 -1 -54 -5 -77 -12 -73 -6 4 -5 -1 2 -10 8
-9 11 -20 8 -25 -3 -5 8 -24 25 -42 24 -25 29 -37 24 -58 -12 -50 -69 -69
-107 -35 -30 27 -18 106 13 88 8 -5 11 -5 7 0 -4 4 -3 14 3 21 6 7 10 66 11
141 0 136 9 173 34 152 8 -6 14 -21 14 -33z"/>
<path d="M1867 5473 c-13 -12 -7 -23 13 -23 11 0 20 7 20 15 0 15 -21 21 -33
8z"/>
<path d="M2213 5455 c0 -8 4 -12 9 -9 5 3 6 10 3 15 -9 13 -12 11 -12 -6z"/>
<path d="M2646 5434 c-10 -26 19 -52 42 -38 9 6 17 20 17 30 0 26 -50 32 -59
8z"/>
<path d="M2173 5386 c0 -8 7 -18 14 -20 8 -3 11 -11 7 -17 -4 -8 -3 -9 5 -5 9
6 9 11 -1 23 -7 9 -12 19 -10 22 2 3 -1 7 -6 9 -5 1 -9 -4 -9 -12z"/>
<path d="M1727 5303 c-4 -3 -7 -17 -7 -30 0 -21 4 -24 27 -21 18 2 29 10 31
22 5 26 -33 48 -51 29z"/>
<path d="M1436 5264 c-10 -26 19 -52 42 -38 9 6 17 20 17 30 0 26 -50 32 -59
8z"/>
<path d="M2886 5255 c-13 -13 -13 -20 -3 -36 19 -31 52 -21 52 16 0 35 -24 45
-49 20z"/>
<path d="M1974 5156 c-10 -26 4 -48 28 -44 17 2 23 10 23 28 0 18 -6 26 -23
28 -13 2 -25 -3 -28 -12z"/>
<path d="M2417 5142 c-13 -3 -17 -11 -15 -30 2 -23 8 -27 33 -27 23 0 31 5 33
22 4 24 -22 42 -51 35z"/>
<path d="M2410 4901 c0 -34 12 -45 40 -36 29 9 25 44 -6 55 -35 14 -34 14 -34
-19z"/>
<path d="M1981 4847 c-25 -31 20 -71 48 -42 12 12 13 19 5 33 -15 22 -38 26
-53 9z"/>
<path d="M2557 5234 c-8 -8 1 -24 14 -24 5 0 9 7 9 15 0 15 -12 20 -23 9z"/>
<path d="M2194 5106 c1 -8 5 -18 8 -22 4 -3 5 1 4 10 -1 8 -5 18 -8 22 -4 3
-5 -1 -4 -10z"/>
<path d="M2200 4980 c-9 -6 -10 -10 -3 -10 6 0 15 5 18 10 8 12 4 12 -15 0z"/>
<path d="M2347 4798 c-7 -20 12 -48 32 -48 21 0 33 22 25 45 -7 18 -51 20 -57
3z"/>
<path d="M2194 4694 c3 -6 -6 -16 -19 -22 -26 -12 -34 -45 -13 -58 17 -11 68
-12 62 -2 -3 4 -1 8 4 8 14 0 4 31 -19 60 -12 14 -18 20 -15 14z"/>
<path d="M4790 6389 c-32 -13 -68 -47 -85 -79 -7 -14 -56 -149 -110 -300 -53
-151 -105 -299 -116 -328 -10 -29 -19 -55 -19 -57 0 -3 38 -5 84 -5 l83 0 41
113 c22 61 69 194 103 295 34 100 65 182 68 182 6 0 121 -328 121 -343 0 -4
-43 -7 -95 -7 -107 0 -109 -1 -158 -89 l-28 -51 169 0 169 0 13 -42 c8 -24 13
-46 12 -50 -1 -5 39 -8 89 -8 83 0 90 2 84 18 -4 9 -57 159 -118 332 -111 318
-138 377 -180 405 -31 20 -95 27 -127 14z"/>
<path d="M6086 6390 c-34 -11 -73 -45 -92 -82 -8 -15 -39 -98 -70 -185 -80
-228 -174 -498 -174 -500 0 -2 38 -3 84 -3 l85 0 19 53 c10 28 57 161 103 295
46 133 86 242 89 242 5 0 120 -330 120 -344 0 -3 -45 -6 -99 -6 l-100 0 -40
-67 -41 -68 169 -3 169 -2 13 -50 13 -50 89 0 c81 0 88 2 82 18 -4 9 -36 100
-72 202 -149 426 -173 487 -205 517 -42 39 -86 49 -142 33z"/>
<path d="M8495 6385 c-40 -22 -64 -45 -80 -75 -12 -25 -82 -217 -186 -515 -28
-82 -54 -156 -56 -162 -4 -10 16 -13 80 -13 l85 0 16 43 c18 48 137 389 169
485 12 34 24 62 27 62 4 0 108 -295 118 -337 3 -10 -18 -13 -96 -13 l-99 0
-42 -67 -41 -68 168 -3 169 -2 14 -48 15 -47 88 -3 c82 -3 88 -1 81 15 -8 21
-94 263 -172 488 -77 221 -103 257 -188 270 -27 4 -49 1 -70 -10z"/>
<path d="M3967 6379 c-81 -19 -162 -76 -188 -134 -36 -79 -15 -165 53 -217 36
-27 138 -67 240 -93 104 -27 157 -54 165 -83 14 -57 -43 -91 -158 -96 -91 -3
-144 7 -172 32 -17 15 -21 15 -50 -2 -18 -9 -49 -32 -70 -51 l-39 -34 39 -25
c69 -45 140 -58 286 -54 148 4 202 21 266 81 75 72 83 184 16 253 -41 42 -83
63 -215 103 -203 63 -237 85 -211 134 21 39 72 57 162 57 79 0 149 -19 149
-41 0 -5 5 -9 12 -9 13 0 137 92 138 102 0 14 -85 57 -142 71 -63 16 -220 19
-281 6z"/>
<path d="M5106 6381 c-4 -5 2 -33 13 -63 11 -29 63 -177 116 -328 53 -151 107
-292 121 -312 33 -51 75 -71 136 -66 88 9 115 50 197 288 27 80 75 216 105
303 31 87 56 165 56 173 0 12 -15 14 -82 12 l-81 -3 -33 -95 c-105 -303 -165
-473 -172 -486 -5 -9 -20 22 -44 94 -45 130 -129 369 -155 437 l-19 50 -76 3
c-42 2 -79 -2 -82 -7z"/>
<path d="M6670 6369 c-75 -44 -73 -32 -74 -410 l-1 -339 80 0 80 0 -3 306 c-2
207 1 303 8 299 5 -3 10 -10 10 -15 0 -17 210 -502 230 -529 58 -82 159 -89
238 -16 l37 33 0 344 0 343 -77 3 -78 3 0 -313 -1 -313 -43 100 c-24 55 -67
156 -96 225 -77 183 -117 257 -155 280 -42 26 -109 26 -155 -1z"/>
<path d="M7489 6369 c-73 -43 -73 -44 -74 -416 l-1 -333 81 0 80 0 -2 307 c-2
273 -1 306 12 289 8 -11 15 -24 15 -29 0 -8 135 -331 186 -447 31 -69 82 -116
135 -125 51 -9 125 26 156 73 22 33 22 38 20 365 l-2 332 -77 3 -78 3 -2 -311
-3 -311 -79 188 c-128 304 -170 388 -209 412 -45 27 -110 27 -158 0z"/>
<path d="M9027 6383 c-4 -3 -7 -177 -7 -385 l0 -378 80 0 80 0 0 155 0 155
165 0 165 0 0 -155 0 -155 80 0 81 0 -3 383 -3 382 -77 3 -78 3 0 -161 0 -160
-139 0 -139 0 -24 -37 -23 -38 -3 198 -2 197 -74 0 c-40 0 -76 -3 -79 -7z"/>
<path d="M3805 5220 c-11 -4 -33 -22 -49 -39 -42 -44 -49 -126 -15 -175 45
-67 61 -71 289 -74 113 -2 213 -8 222 -13 48 -26 67 -121 34 -170 -32 -49 -55
-54 -256 -54 -208 0 -226 5 -257 70 -12 25 -23 35 -40 35 -30 0 -31 -32 -2
-80 46 -75 64 -80 303 -81 218 -1 236 3 283 53 29 31 43 70 43 123 0 53 -12
88 -42 120 -41 43 -73 49 -284 55 -221 6 -231 8 -252 69 -12 35 7 84 40 103
25 14 351 19 398 6 28 -8 60 -55 60 -87 0 -17 6 -21 30 -21 27 0 30 3 30 30 0
44 -27 92 -66 118 -32 21 -43 22 -241 21 -115 0 -217 -4 -228 -9z"/>
<path d="M4600 4935 l0 -295 308 0 309 0 -2 28 -1 27 -282 3 -282 2 0 265 0
265 -25 0 -25 0 0 -295z"/>
<path d="M4440 4931 l0 -291 28 0 27 0 -1 287 -1 288 -26 3 -27 3 0 -290z"/>
<path d="M5330 4930 l0 -290 28 0 27 0 0 290 0 290 -27 0 -28 0 0 -290z"/>
<path d="M5604 5209 c-37 -11 -76 -48 -98 -93 -13 -27 -16 -68 -16 -189 0
-162 6 -196 43 -235 45 -49 63 -52 279 -53 112 0 214 4 228 9 56 22 100 83
100 138 0 20 -5 24 -30 24 -24 0 -30 -4 -30 -22 -1 -28 -16 -49 -53 -73 -24
-16 -53 -19 -185 -21 -178 -3 -229 6 -267 46 l-26 28 3 166 3 167 34 29 34 30
191 0 191 0 38 -31 c20 -17 37 -39 37 -49 0 -34 12 -50 36 -50 20 0 24 5 24
29 0 66 -51 132 -116 150 -47 13 -376 13 -420 0z"/>
<path d="M6317 5206 c-21 -8 -47 -25 -59 -37 -44 -50 -48 -77 -48 -309 l0
-220 28 0 27 0 -1 90 c0 55 4 91 10 93 6 2 128 4 271 3 l260 -1 3 -92 3 -93
29 0 29 0 -2 228 c-2 188 -5 232 -19 257 -22 40 -56 70 -97 84 -50 16 -385 14
-434 -3z m433 -62 c48 -29 60 -62 60 -168 l0 -96 -272 2 -273 3 -1 75 c-2 99
10 143 47 174 30 26 31 26 221 26 158 0 195 -3 218 -16z"/>
</g>
</svg>
