<svg width="848" height="722" viewBox="0 0 848 722" fill="none" xmlns="http://www.w3.org/2000/svg">
<path fill-rule="evenodd" clip-rule="evenodd" d="M715.207 174.635C714.653 174.233 713.34 174.09 712.729 173.969C710.191 173.469 707.575 173.251 704.987 173.251C697.006 173.263 688.895 174.046 681.047 175.402C676.064 176.263 670.04 179.16 665.083 177.587C656.447 174.846 647.719 174.98 639.525 178.893C632.035 182.472 626.348 189.268 623.029 196.611C622.529 197.719 620.497 201.799 619.922 204.549C619.677 205.112 619.44 205.678 619.227 206.253C618.623 207.884 618.081 209.544 617.578 211.208C617.363 211.918 616.822 213.484 617.464 213.787C616.437 215.682 615.527 217.635 614.769 219.651C612.565 225.514 610.154 231.945 609.38 238.16C609.093 240.461 609.082 242.775 609.348 245.081C609.48 246.22 609.426 248.512 610.198 249.378C611.838 251.217 612.68 248.643 612.495 247.417C611.083 238.074 613.809 229.3 617.039 220.517C619.127 214.838 622.559 209.642 626.404 204.936C629.515 201.128 632.853 198.128 637.118 195.603C642.334 192.515 647.91 190.018 653.435 187.514C657.068 185.867 660.706 184.263 664.441 182.844C665.272 182.528 666.579 181.718 667.5 181.715C669.447 181.708 672.207 183.145 674.088 183.679C680.275 185.438 686.542 187.691 692.936 188.589C697.038 189.166 700.88 188.517 704.716 187.15C705.108 187.011 705.765 186.652 706.57 186.14C709.418 185.044 712.112 183.665 714.458 181.676C715.809 180.53 717.036 179.049 718.154 177.694C718.489 177.288 718.637 176.824 718.642 176.382C718.895 176.25 719.063 176.095 719.101 175.914C719.38 174.58 716.836 174.556 715.207 174.635" fill="#89C5CC"/>
<path fill-rule="evenodd" clip-rule="evenodd" d="M66.8704 285.853C65.3046 287.121 63.7689 288.416 62.2706 289.764C61.1288 290.791 59.1081 292.02 58.6982 293.576C58.2721 295.193 59.6173 296.707 60.68 297.684C66.2997 302.855 72.6277 306.35 80.4148 306.931C92.405 307.827 102.84 304.765 113.243 298.74C120.551 294.508 125.391 288.248 126.448 279.795C135.151 283.412 143.568 288.397 150.721 294.516C154.25 297.535 157.29 300.88 160.102 304.587C161.902 306.963 163.644 309.376 165.261 311.882C165.963 312.971 166.678 314.902 167.838 315.529C169.2 316.266 170.846 315.111 170.778 313.597C170.722 312.337 169.361 310.875 168.725 309.845C167.668 308.134 166.595 306.434 165.466 304.77C163.638 302.077 161.749 299.421 159.688 296.9C155.058 291.237 149.166 286.559 143.059 282.569C131.343 274.915 118.484 270.093 104.227 269.685C95.4614 269.433 88.087 272.428 80.5906 276.901C75.9234 279.686 71.1055 282.424 66.8704 285.853" fill="#DDE3E9"/>
<path fill-rule="evenodd" clip-rule="evenodd" d="M180.583 248.832C171.447 239.425 162.281 230.134 152.074 221.85C146.06 216.969 139.721 212.53 133.512 207.902C134.229 208.529 134.931 209.175 135.617 209.836C133.679 208.521 131.142 207.777 129.088 206.559C126.796 205.201 124.606 203.648 122.457 202.082C118.263 199.026 114.132 195.911 109.82 193.015C105.017 189.788 100.039 186.806 95.154 183.7C91.008 181.065 86.8113 178.18 82.3759 176.025C79.9585 174.851 77.5355 173.459 75.1082 172.234C74.2958 171.824 66.0528 166.619 66.0736 166.604C66.5292 166.26 70.6773 168.209 71.3187 168.472C73.1926 169.237 74.9846 170.153 76.7863 171.065C75.7974 169.115 75.0146 167.065 74.5885 164.908C74.4569 164.243 73.4023 159.395 73.9419 158.989C74.2114 158.786 76.8413 167.458 76.976 168.292C77.0854 168.969 77.0693 169.944 77.2911 170.585C77.649 171.621 77.6309 171.308 78.4194 171.892C79.8645 172.961 81.7829 173.629 83.3469 174.523C84.1904 174.994 86.8017 176.861 88.3746 177.394C93.1338 179.705 97.9577 183.261 102.479 186.214C101.293 183.983 100.39 181.651 99.731 179.207C99.5743 178.627 97.8842 173.422 98.2943 173.113C98.7557 172.765 101.976 180.715 102.167 181.467C102.521 182.865 102.595 184.421 103.038 185.782C103.525 187.274 105.045 187.804 106.415 188.674C111.454 191.876 116.32 195.278 121.105 198.836C126.326 189.55 120.306 178.337 115.232 170.546C111.575 164.931 106.652 160.117 101.453 155.915C94.5156 150.306 86.578 145.825 78.6501 141.726C69.4126 136.95 59.4285 133.991 49.0487 132.624C43.62 131.909 38.066 131.929 32.5824 132.159C29.9036 132.27 27.3324 132.625 24.7653 133.499C23.6082 133.893 22.49 134.39 21.4003 134.946C20.5724 135.369 18.5695 135.815 18.0935 136.445C14.1748 141.545 12.1701 146.628 12.4762 153.037C12.7657 159.104 14.6818 165.174 17.2822 170.586C20.1781 176.612 23.9027 182.081 28.7738 186.671C32.4903 190.174 36.6453 193.222 40.7729 196.23C55.4534 206.929 74.0659 216.234 93.0798 213.843C99.2346 213.07 105.089 210.917 110.559 207.992C111.848 207.303 113.13 206.606 114.346 205.792C115.167 205.244 117.36 202.772 118.185 202.682C119.316 202.559 121.753 204.859 122.814 205.56C130.879 210.883 138.732 216.495 146.421 222.334C154.601 228.547 162.38 235.182 169.93 242.128C173.141 245.083 176.332 248.045 179.45 251.099C180.176 251.809 181.951 254.426 183.267 254.544C184.099 254.619 184.661 253.909 184.542 253.138C184.335 251.799 181.518 249.796 180.583 248.832" fill="#C1DEE2"/>
<path fill-rule="evenodd" clip-rule="evenodd" d="M705.616 212.32C702.077 211.547 698.17 211.606 694.565 211.67C675.235 211.933 656.252 221.085 643.898 235.709C633.381 248.158 630.489 263.636 628.411 279.282C628.205 280.836 628.117 282.38 628 283.936C627.975 284.27 627.938 284.568 627.898 284.849C627.081 285.579 626.653 286.431 627.136 287.367C625.336 291.306 623.813 295.345 622.507 299.511C618.661 311.773 614.749 324.269 617.159 337.163C617.722 330.067 618.906 322.811 620.323 315.832C620.404 315.431 620.492 315.034 620.584 314.638C620.593 314.596 620.602 314.554 620.611 314.513C621.113 312.375 621.764 310.302 622.557 308.261C622.565 308.239 622.573 308.217 622.582 308.195C622.686 307.927 622.798 307.659 622.907 307.392C623.134 306.839 623.367 306.287 623.615 305.738C623.698 305.551 623.779 305.362 623.856 305.172C625.01 302.344 625.497 299.158 626.531 296.232C626.778 295.567 627.036 294.904 627.307 294.244C627.323 294.206 627.339 294.167 627.356 294.129C628.088 292.354 628.896 290.602 629.752 288.867C630.216 288.518 630.465 287.652 630.866 286.864C630.948 286.709 631.597 285.674 631.789 285.078C632.293 284.103 632.795 283.129 633.302 282.156C633.287 282.162 633.272 282.168 633.256 282.173C633.764 281.239 634.273 280.31 634.778 279.383C634.889 279.18 635.002 278.976 635.113 278.772C635.295 278.447 635.476 278.123 635.657 277.799C637.35 274.769 639.146 271.799 641.01 268.867C641.676 267.82 643.265 266.319 643.57 265.144C643.581 265.1 643.584 265.06 643.591 265.018C647.637 259.335 652.294 254.094 657.88 249.941C657.205 250.671 655.77 253.148 655.39 253.638C654.229 255.14 652.968 256.537 651.703 257.952C649.437 260.486 647.225 263.101 645.259 265.866C641.664 270.922 638.562 276.243 635.63 281.671C635.602 281.703 635.572 281.733 635.546 281.766C634.072 283.582 633.145 286.328 632.084 288.405C636.282 286.461 640.923 285.195 645.232 283.468C649.528 281.747 653.707 279.831 657.742 277.58C663.105 274.589 668.668 271.211 673.735 267.389C679.542 263.787 684.422 258.83 688.729 253.627C693.825 247.471 698.495 241.262 701.384 233.788C702.802 230.115 703.919 226.285 704.58 222.411C704.609 222.242 704.646 222.059 704.687 221.868C705.364 220.53 705.969 219.162 706.477 217.762C707.283 215.542 709.188 213.1 705.616 212.32" fill="#69A1AC"/>
<path fill-rule="evenodd" clip-rule="evenodd" d="M106.492 245.106C105.387 244.004 104.146 243.011 102.69 242.302C102.321 242.123 99.578 240.923 99.3993 241.186C98.9831 241.799 106.16 244.754 106.492 245.106M119.497 237.748C119.488 237.795 120.439 239.281 120.698 239.738C121.249 240.71 121.758 241.7 122.237 242.692C121.528 240.94 120.8 239.314 119.497 237.748M52.9772 249.847C52.0611 250.118 50.9596 249.047 52.1479 248.784C53.1095 248.572 53.0623 248.522 53.494 247.809C53.8446 247.23 54.0606 246.523 54.3682 245.916C55.0208 244.627 55.761 243.397 56.6696 242.246C58.6168 239.776 60.9894 237.648 63.6504 235.855C68.2943 232.726 73.5013 229.867 79.0248 228.43C87.8071 226.145 97.8027 226.004 106.599 227.588C112.046 228.569 117.025 230.274 120.642 234.313C122.45 236.332 123.87 238.696 124.49 241.3C124.652 241.981 124.622 242.738 124.824 243.404C125.136 244.429 124.998 244.156 126.3 244.355C127.721 244.573 129.14 244.795 130.56 245.021C134.276 245.613 138.014 246.241 141.635 247.202C142.827 247.518 143.993 247.904 145.132 248.353C145.993 248.692 149.422 249.757 149.839 250.787C150.532 252.501 148.208 251.724 147.486 251.351C146.853 251.024 146.204 250.719 145.545 250.438C143.886 249.731 142.157 249.184 140.39 248.749C138.48 248.278 136.53 247.927 134.589 247.576C132.778 247.248 130.96 246.95 129.14 246.665C128.129 246.506 127.117 246.352 126.105 246.198C125.76 246.146 125.15 245.87 125.196 246.284C123.069 245.907 120.768 245.961 118.601 245.857C115.947 245.729 113.283 245.625 110.62 245.701C108.699 245.757 106.777 245.873 104.866 246.11C103.75 246.249 102.651 246.452 101.555 246.709C100.954 246.851 98.5805 247.151 98.2527 247.634C98.3936 247.426 101.013 247.627 101.346 247.616C102.679 247.57 104.002 247.448 105.33 247.311C107.796 247.058 110.262 246.925 112.734 246.945C112.725 247.344 111.036 248.056 110.624 248.321C109.699 248.915 108.814 249.563 107.988 250.274C106.532 251.526 104.79 253.077 103.783 254.56C104.08 254.123 105.543 253.554 106.063 253.22C106.895 252.685 107.71 252.114 108.481 251.504C109.193 250.94 109.857 250.331 110.511 249.71C111.164 249.087 112.05 247.794 112.909 247.38C112.961 247.355 113.335 247.627 113.547 247.534C113.762 247.441 114.029 246.975 114.083 246.956C114.882 246.672 116.4 247.025 117.24 247.061C119.418 247.153 121.595 247.274 123.772 247.385C124.446 247.419 125.019 247.278 125.274 247.736C125.545 248.224 125.048 249.508 124.907 250.041C124.382 252.017 123.449 253.789 121.982 255.32C119.234 258.188 115.845 260.1 112.016 261.379C97.3521 266.278 81.7515 268.24 67.0919 263.144C61.0229 261.034 51.8828 257.264 52.9772 249.847" fill="#89C5CC"/>
<g opacity="0.6" clip-path="url(#clip0_267_10449)">
<path fill-rule="evenodd" clip-rule="evenodd" d="M724.716 480.64C734.697 542.825 492.651 583.386 284.315 555.079C75.9805 526.773 -19.5937 416.232 79.8203 357.332C179.234 298.432 714.736 418.455 724.716 480.64Z" fill="#DDE3E9"/>
</g>
<g clip-path="url(#clip1_267_10449)">
<rect x="142.318" y="50.8359" width="164.949" height="313.3" rx="8.29933" fill="#F2F2F2"/>
<path fill-rule="evenodd" clip-rule="evenodd" d="M224.274 344.425C232.868 344.425 239.835 337.458 239.835 328.864C239.835 320.27 232.868 313.303 224.274 313.303C215.68 313.303 208.713 320.27 208.713 328.864C208.713 337.458 215.68 344.425 224.274 344.425Z" fill="white"/>
<path fill-rule="evenodd" clip-rule="evenodd" d="M210.788 71.5842C211.934 71.5842 212.863 70.6553 212.863 69.5094C212.863 68.3635 211.934 67.4346 210.788 67.4346C209.642 67.4346 208.713 68.3635 208.713 69.5094C208.713 70.6553 209.642 71.5842 210.788 71.5842Z" fill="white"/>
<rect x="218.049" y="67.4346" width="21.7857" height="4.14967" rx="2.07483" fill="white"/>
<g clip-path="url(#clip2_267_10449)">
<g clip-path="url(#clip3_267_10449)">
<rect x="156.842" y="79.8838" width="135.902" height="56.0205" rx="4.14967" fill="white"/>
<g clip-path="url(#clip4_267_10449)">
<rect x="197.301" y="96.6904" width="75.7314" height="8.40307" rx="3.11225" fill="#DDE3E9"/>
<rect x="197.301" y="110.695" width="50.8334" height="8.40307" rx="3.11225" fill="#DDE3E9"/>
</g>
<path fill-rule="evenodd" clip-rule="evenodd" d="M178.629 120.343C185.504 120.343 191.078 114.77 191.078 107.894C191.078 101.019 185.504 95.4453 178.629 95.4453C171.753 95.4453 166.18 101.019 166.18 107.894C166.18 114.77 171.753 120.343 178.629 120.343Z" fill="#C5CFD6"/>
</g>
<g clip-path="url(#clip5_267_10449)">
<rect x="156.842" y="144.203" width="135.902" height="43.5715" rx="4.14967" fill="white"/>
<g clip-path="url(#clip6_267_10449)">
<rect x="197.301" y="157.274" width="75.7314" height="6.53572" rx="3.11225" fill="#DDE3E9"/>
<rect x="197.301" y="168.167" width="50.8334" height="6.53572" rx="3.11225" fill="#DDE3E9"/>
</g>
<path fill-rule="evenodd" clip-rule="evenodd" d="M178.629 178.438C185.504 178.438 191.078 172.864 191.078 165.989C191.078 159.114 185.504 153.54 178.629 153.54C171.753 153.54 166.18 159.114 166.18 165.989C166.18 172.864 171.753 178.438 178.629 178.438Z" fill="#C5CFD6"/>
</g>
<g clip-path="url(#clip7_267_10449)">
<rect x="156.842" y="196.074" width="135.902" height="43.5715" rx="4.14967" fill="white"/>
<g clip-path="url(#clip8_267_10449)">
<rect x="197.301" y="209.146" width="75.7314" height="6.53572" rx="3.11225" fill="#DDE3E9"/>
<rect x="197.301" y="220.038" width="50.8334" height="6.53572" rx="3.11225" fill="#DDE3E9"/>
</g>
<path fill-rule="evenodd" clip-rule="evenodd" d="M178.629 230.309C185.504 230.309 191.078 224.736 191.078 217.86C191.078 210.985 185.504 205.411 178.629 205.411C171.753 205.411 166.18 210.985 166.18 217.86C166.18 224.736 171.753 230.309 178.629 230.309Z" fill="#AFB9C5"/>
</g>
<g clip-path="url(#clip9_267_10449)">
<rect x="156.842" y="247.945" width="135.902" height="43.5715" rx="4.14967" fill="white"/>
<g clip-path="url(#clip10_267_10449)">
<rect x="197.301" y="261.017" width="75.7314" height="6.53572" rx="3.11225" fill="#DDE3E9"/>
<rect x="197.301" y="271.909" width="50.8334" height="6.53572" rx="3.11225" fill="#DDE3E9"/>
</g>
<path fill-rule="evenodd" clip-rule="evenodd" d="M178.629 282.18C185.504 282.18 191.078 276.607 191.078 269.731C191.078 262.856 185.504 257.282 178.629 257.282C171.753 257.282 166.18 262.856 166.18 269.731C166.18 276.607 171.753 282.18 178.629 282.18Z" fill="#C5CFD6"/>
</g>
</g>
</g>
<g clip-path="url(#clip11_267_10449)">
<path fill-rule="evenodd" clip-rule="evenodd" d="M173.587 303.966C172.213 303.966 170.842 303.993 169.47 304.065C168.423 304.12 166.824 303.903 165.939 304.555C165.019 305.232 165.083 306.619 165.226 307.598C165.986 312.776 167.84 317.368 171.719 321.037C177.691 326.686 184.537 329.557 192.639 330.835C198.329 331.733 203.583 330.486 207.772 326.439C210.833 332.12 213.155 338.407 214.32 344.752C214.895 347.883 215.071 350.976 214.969 354.164C214.904 356.206 214.792 358.243 214.573 360.275C214.478 361.159 214.028 362.495 214.373 363.33C214.779 364.31 216.147 364.405 216.762 363.569C217.273 362.873 217.179 361.508 217.284 360.684C217.458 359.317 217.619 357.949 217.735 356.575C217.922 354.352 218.06 352.122 218.05 349.891C218.027 344.876 216.912 339.842 215.387 335.083C212.462 325.951 207.715 317.835 200.332 311.468C195.793 307.552 190.598 305.967 184.704 305.115C181.034 304.586 177.304 303.966 173.587 303.966" fill="#89C5CC"/>
<path fill-rule="evenodd" clip-rule="evenodd" d="M194.782 340.275C179.948 340.275 169.958 352.231 165.234 364.656C163.453 369.34 163.036 374.483 162.35 379.401C162.129 380.979 162.211 383.384 161.57 384.79C161.338 385.3 160.805 385.483 161.06 386.178C161.214 386.599 161.517 386.856 161.971 386.94C162.904 387.112 164.224 386.095 165.023 385.694C171.659 382.367 176.018 377.221 179.575 370.926C181.779 367.024 184.016 362.973 185.326 358.689C186.126 356.073 186.592 353.317 186.865 350.602C186.973 349.533 187.077 348.438 187.071 347.363C187.064 346.295 186.568 345.731 186.211 344.802C191.161 342.929 196.747 342.418 201.761 344.36C206.398 346.156 210.251 349.626 212.408 353.985C212.968 355.119 213.4 356.314 213.715 357.534C213.921 358.332 213.931 359.368 214.313 360.09C215.239 361.841 217.187 360.671 217 359.041C216.479 354.496 213.878 349.932 210.555 346.772C206.363 342.787 200.681 340.275 194.782 340.275" fill="#89C5CC"/>
<rect x="210.787" y="77.8086" width="164.949" height="313.3" rx="8.29933" fill="#DDE3E9"/>
<path fill-rule="evenodd" clip-rule="evenodd" d="M292.745 371.398C301.339 371.398 308.306 364.431 308.306 355.837C308.306 347.242 301.339 340.275 292.745 340.275C284.151 340.275 277.184 347.242 277.184 355.837C277.184 364.431 284.151 371.398 292.745 371.398Z" fill="white"/>
<path fill-rule="evenodd" clip-rule="evenodd" d="M279.256 98.5579C280.402 98.5579 281.331 97.6289 281.331 96.483C281.331 95.3371 280.402 94.4082 279.256 94.4082C278.111 94.4082 277.182 95.3371 277.182 96.483C277.182 97.6289 278.111 98.5579 279.256 98.5579Z" fill="white"/>
<rect x="286.518" y="94.4082" width="21.7857" height="4.14967" rx="2.07483" fill="white"/>
<g clip-path="url(#clip12_267_10449)">
<g clip-path="url(#clip13_267_10449)">
<rect x="225.312" y="106.856" width="135.902" height="56.0205" rx="4.14967" fill="white"/>
<g clip-path="url(#clip14_267_10449)">
<rect x="234.648" y="123.663" width="75.7314" height="8.40307" rx="3.11225" fill="#DDE3E9"/>
<rect x="234.648" y="137.668" width="50.8334" height="8.40307" rx="3.11225" fill="#DDE3E9"/>
</g>
<path fill-rule="evenodd" clip-rule="evenodd" d="M346.69 142.129C350.7 142.129 353.952 138.878 353.952 134.867C353.952 130.857 350.7 127.605 346.69 127.605C342.679 127.605 339.428 130.857 339.428 134.867C339.428 138.878 342.679 142.129 346.69 142.129Z" fill="#DDE3E9"/>
<path fill-rule="evenodd" clip-rule="evenodd" d="M346.69 137.979C348.409 137.979 349.803 136.586 349.803 134.867C349.803 133.148 348.409 131.755 346.69 131.755C344.972 131.755 343.578 133.148 343.578 134.867C343.578 136.586 344.972 137.979 346.69 137.979Z" fill="#F2F2F2"/>
</g>
<g clip-path="url(#clip15_267_10449)">
<rect x="225.312" y="171.177" width="135.902" height="43.5715" rx="4.14967" fill="white"/>
<g clip-path="url(#clip16_267_10449)">
<rect x="265.771" y="184.247" width="75.7314" height="6.53572" rx="3.11225" fill="#DDE3E9"/>
<rect x="265.771" y="195.141" width="50.8334" height="6.53572" rx="3.11225" fill="#DDE3E9"/>
</g>
<path fill-rule="evenodd" clip-rule="evenodd" d="M247.097 205.411C253.973 205.411 259.546 199.837 259.546 192.962C259.546 186.086 253.973 180.513 247.097 180.513C240.222 180.513 234.648 186.086 234.648 192.962C234.648 199.837 240.222 205.411 247.097 205.411Z" fill="#C5CFD6"/>
</g>
<g clip-path="url(#clip17_267_10449)">
<rect x="225.312" y="223.047" width="135.902" height="43.5715" rx="4.14967" fill="white"/>
<g clip-path="url(#clip18_267_10449)">
<rect x="234.648" y="236.118" width="75.7314" height="6.53572" rx="3.11225" fill="#DDE3E9"/>
<rect x="234.648" y="247.011" width="50.8334" height="6.53572" rx="3.11225" fill="#AFB9C5"/>
</g>
<path fill-rule="evenodd" clip-rule="evenodd" d="M346.69 252.094C350.7 252.094 353.952 248.843 353.952 244.832C353.952 240.822 350.7 237.57 346.69 237.57C342.679 237.57 339.428 240.822 339.428 244.832C339.428 248.843 342.679 252.094 346.69 252.094Z" fill="#DDE3E9"/>
<path fill-rule="evenodd" clip-rule="evenodd" d="M346.69 247.944C348.409 247.944 349.803 246.551 349.803 244.832C349.803 243.113 348.409 241.72 346.69 241.72C344.972 241.72 343.578 243.113 343.578 244.832C343.578 246.551 344.972 247.944 346.69 247.944Z" fill="#F2F2F2"/>
</g>
<g clip-path="url(#clip19_267_10449)">
<rect x="225.312" y="274.918" width="135.902" height="43.5715" rx="4.14967" fill="white"/>
<g clip-path="url(#clip20_267_10449)">
<rect x="265.771" y="287.989" width="75.7314" height="6.53572" rx="3.11225" fill="#DDE3E9"/>
<rect x="265.771" y="298.882" width="50.8334" height="6.53572" rx="3.11225" fill="#DDE3E9"/>
</g>
<path fill-rule="evenodd" clip-rule="evenodd" d="M247.097 309.153C253.973 309.153 259.546 303.579 259.546 296.704C259.546 289.828 253.973 284.255 247.097 284.255C240.222 284.255 234.648 289.828 234.648 296.704C234.648 303.579 240.222 309.153 247.097 309.153Z" fill="#C5CFD6"/>
</g>
</g>
</g>
<g clip-path="url(#clip21_267_10449)">
<rect x="279.258" y="103.744" width="347.534" height="358.946" rx="8.29933" fill="#F2F2F2"/>
<rect x="537.574" y="148.354" width="72.6191" height="84.0307" rx="8.29933" fill="white"/>
<path fill-rule="evenodd" clip-rule="evenodd" d="M573.882 197.112C583.049 197.112 590.481 189.681 590.481 180.514C590.481 171.347 583.049 163.915 573.882 163.915C564.715 163.915 557.283 171.347 557.283 180.514C557.283 189.681 564.715 197.112 573.882 197.112Z" fill="#DDE3E9"/>
<rect x="547.947" y="201.262" width="51.8708" height="6.2245" rx="3.11225" fill="#DDE3E9"/>
<rect x="556.246" y="211.636" width="35.2722" height="6.2245" rx="3.11225" fill="#DDE3E9"/>
<path d="M279.258 112.043C279.258 107.46 282.974 103.744 287.557 103.744H618.493C623.077 103.744 626.792 107.46 626.792 112.043V131.754H279.258V112.043Z" fill="#C5CFD6"/>
<path fill-rule="evenodd" clip-rule="evenodd" d="M292.743 122.418C295.035 122.418 296.893 120.561 296.893 118.269C296.893 115.977 295.035 114.119 292.743 114.119C290.452 114.119 288.594 115.977 288.594 118.269C288.594 120.561 290.452 122.418 292.743 122.418Z" fill="#F2F2F2"/>
<path fill-rule="evenodd" clip-rule="evenodd" d="M305.193 122.418C307.484 122.418 309.342 120.561 309.342 118.269C309.342 115.977 307.484 114.119 305.193 114.119C302.901 114.119 301.043 115.977 301.043 118.269C301.043 120.561 302.901 122.418 305.193 122.418Z" fill="#F2F2F2"/>
<path fill-rule="evenodd" clip-rule="evenodd" d="M317.642 122.418C319.934 122.418 321.792 120.561 321.792 118.269C321.792 115.977 319.934 114.119 317.642 114.119C315.35 114.119 313.492 115.977 313.492 118.269C313.492 120.561 315.35 122.418 317.642 122.418Z" fill="#F2F2F2"/>
<g clip-path="url(#clip22_267_10449)">
<rect x="537.574" y="240.684" width="72.6191" height="201.259" rx="8.29933" fill="white"/>
<g clip-path="url(#clip23_267_10449)">
<rect x="556.248" y="259.356" width="35.2722" height="26.9728" rx="4.14967" fill="#DDE3E9"/>
<rect x="556.248" y="294.629" width="35.2722" height="25.9354" rx="4.14967" fill="#AFB9C5"/>
<rect x="556.248" y="328.863" width="35.2722" height="25.9354" rx="4.14967" fill="#DDE3E9"/>
<rect x="556.248" y="397.333" width="35.2722" height="25.9354" rx="4.14967" fill="#DDE3E9"/>
<rect x="556.248" y="363.099" width="35.2722" height="25.9354" rx="4.14967" fill="#C5CFD6"/>
</g>
</g>
<g clip-path="url(#clip24_267_10449)">
<g clip-path="url(#clip25_267_10449)">
<rect x="295.855" y="149.391" width="233.419" height="48.7586" rx="4.14967" fill="white"/>
<g clip-path="url(#clip26_267_10449)">
<rect x="305.193" y="164.018" width="173.249" height="7.31379" rx="3.11225" fill="#DDE3E9"/>
<rect x="305.193" y="176.207" width="116.29" height="7.31379" rx="3.11225" fill="#DDE3E9"/>
</g>
<path fill-rule="evenodd" clip-rule="evenodd" d="M504.33 181.032C508.341 181.032 511.592 177.78 511.592 173.77C511.592 169.759 508.341 166.508 504.33 166.508C500.32 166.508 497.068 169.759 497.068 173.77C497.068 177.78 500.32 181.032 504.33 181.032Z" fill="#DDE3E9"/>
<path fill-rule="evenodd" clip-rule="evenodd" d="M504.331 176.882C506.05 176.882 507.443 175.488 507.443 173.769C507.443 172.051 506.05 170.657 504.331 170.657C502.612 170.657 501.219 172.051 501.219 173.769C501.219 175.488 502.612 176.882 504.331 176.882Z" fill="#F2F2F2"/>
</g>
<g clip-path="url(#clip27_267_10449)">
<rect x="295.855" y="206.448" width="233.419" height="40.4592" rx="4.14967" fill="white"/>
<g clip-path="url(#clip28_267_10449)">
<rect x="305.193" y="218.587" width="173.249" height="6.06889" rx="3.03444" fill="#DDE3E9"/>
<rect x="305.193" y="228.701" width="116.29" height="6.06889" rx="3.03444" fill="#DDE3E9"/>
</g>
<path fill-rule="evenodd" clip-rule="evenodd" d="M504.33 233.94C508.341 233.94 511.592 230.689 511.592 226.678C511.592 222.667 508.341 219.416 504.33 219.416C500.32 219.416 497.068 222.667 497.068 226.678C497.068 230.689 500.32 233.94 504.33 233.94Z" fill="#DDE3E9"/>
<path fill-rule="evenodd" clip-rule="evenodd" d="M504.331 229.79C506.05 229.79 507.443 228.397 507.443 226.678C507.443 224.959 506.05 223.565 504.331 223.565C502.612 223.565 501.219 224.959 501.219 226.678C501.219 228.397 502.612 229.79 504.331 229.79Z" fill="#F2F2F2"/>
</g>
<g clip-path="url(#clip29_267_10449)">
<rect x="295.855" y="255.207" width="233.419" height="40.4592" rx="4.14967" fill="white"/>
<g clip-path="url(#clip30_267_10449)">
<rect x="305.193" y="267.345" width="173.249" height="6.06889" rx="3.03444" fill="#DDE3E9"/>
<rect x="305.193" y="277.46" width="116.29" height="6.06889" rx="3.03444" fill="#DDE3E9"/>
</g>
<path fill-rule="evenodd" clip-rule="evenodd" d="M504.33 282.699C508.341 282.699 511.592 279.447 511.592 275.437C511.592 271.426 508.341 268.175 504.33 268.175C500.32 268.175 497.068 271.426 497.068 275.437C497.068 279.447 500.32 282.699 504.33 282.699Z" fill="#DDE3E9"/>
<path fill-rule="evenodd" clip-rule="evenodd" d="M504.331 278.549C506.05 278.549 507.443 277.155 507.443 275.436C507.443 273.718 506.05 272.324 504.331 272.324C502.612 272.324 501.219 273.718 501.219 275.436C501.219 277.155 502.612 278.549 504.331 278.549Z" fill="#AFB9C5"/>
</g>
<g clip-path="url(#clip31_267_10449)">
<rect x="295.855" y="401.482" width="233.419" height="40.4592" rx="4.14967" fill="white"/>
<g clip-path="url(#clip32_267_10449)">
<rect x="305.193" y="413.621" width="173.249" height="6.06889" rx="3.03444" fill="#DDE3E9"/>
<rect x="305.193" y="423.735" width="116.29" height="6.06889" rx="3.03444" fill="#DDE3E9"/>
</g>
<path fill-rule="evenodd" clip-rule="evenodd" d="M504.33 428.975C508.341 428.975 511.592 425.724 511.592 421.713C511.592 417.702 508.341 414.451 504.33 414.451C500.32 414.451 497.068 417.702 497.068 421.713C497.068 425.724 500.32 428.975 504.33 428.975Z" fill="#DDE3E9"/>
<path fill-rule="evenodd" clip-rule="evenodd" d="M504.331 424.825C506.05 424.825 507.443 423.432 507.443 421.713C507.443 419.994 506.05 418.601 504.331 418.601C502.612 418.601 501.219 419.994 501.219 421.713C501.219 423.432 502.612 424.825 504.331 424.825Z" fill="#F2F2F2"/>
</g>
<g clip-path="url(#clip33_267_10449)">
<rect x="295.855" y="352.725" width="233.419" height="40.4592" rx="4.14967" fill="white"/>
<g clip-path="url(#clip34_267_10449)">
<rect x="305.193" y="364.862" width="173.249" height="6.06889" rx="3.03444" fill="#DDE3E9"/>
<rect x="305.193" y="374.977" width="116.29" height="6.06889" rx="3.03444" fill="#DDE3E9"/>
</g>
<path fill-rule="evenodd" clip-rule="evenodd" d="M504.33 380.215C508.341 380.215 511.592 376.964 511.592 372.953C511.592 368.943 508.341 365.691 504.33 365.691C500.32 365.691 497.068 368.943 497.068 372.953C497.068 376.964 500.32 380.215 504.33 380.215Z" fill="#DDE3E9"/>
<path fill-rule="evenodd" clip-rule="evenodd" d="M504.331 376.065C506.05 376.065 507.443 374.672 507.443 372.953C507.443 371.234 506.05 369.841 504.331 369.841C502.612 369.841 501.219 371.234 501.219 372.953C501.219 374.672 502.612 376.065 504.331 376.065Z" fill="#F2F2F2"/>
</g>
<g clip-path="url(#clip35_267_10449)">
<rect x="295.855" y="303.966" width="233.419" height="40.4592" rx="4.14967" fill="white"/>
<g clip-path="url(#clip36_267_10449)">
<rect x="305.193" y="316.104" width="173.249" height="6.06889" rx="3.03444" fill="#DDE3E9"/>
<rect x="305.193" y="326.219" width="116.29" height="6.06889" rx="3.03444" fill="#DDE3E9"/>
</g>
<path fill-rule="evenodd" clip-rule="evenodd" d="M504.33 331.457C508.341 331.457 511.592 328.206 511.592 324.196C511.592 320.185 508.341 316.934 504.33 316.934C500.32 316.934 497.068 320.185 497.068 324.196C497.068 328.206 500.32 331.457 504.33 331.457Z" fill="#DDE3E9"/>
<path fill-rule="evenodd" clip-rule="evenodd" d="M504.331 327.308C506.05 327.308 507.443 325.914 507.443 324.195C507.443 322.476 506.05 321.083 504.331 321.083C502.612 321.083 501.219 322.476 501.219 324.195C501.219 325.914 502.612 327.308 504.331 327.308Z" fill="#F2F2F2"/>
</g>
</g>
</g>
<path fill-rule="evenodd" clip-rule="evenodd" d="M712.882 280.495C708.79 277.72 703.348 276.993 698.452 276.993C679.326 276.993 661.349 284.089 645.819 294.662C637.309 300.456 629.696 307.833 622.975 315.515C619.096 319.949 615.637 324.746 613.188 330.081C611.535 333.682 610.401 337.434 609.632 341.303C608.695 346.02 607.951 350.832 607.614 355.626C607.482 357.514 606.385 367.533 609.524 367.703C609.506 367.95 609.502 368.185 609.521 368.396C602.705 379.054 598.493 391.545 594.588 403.387C591.19 413.692 588.162 424.085 586.197 434.746C583.609 448.782 581.91 463.028 581.101 477.266C580.928 480.326 580.809 483.387 580.706 486.451C580.619 489.064 580.531 491.678 580.445 494.291C580.349 497.22 579.834 500.591 580.3 503.503C580.705 506.038 582.899 505.655 582.996 503.131C583.114 500.084 583.094 497.031 583.228 493.982C583.405 489.935 583.588 485.888 583.786 481.842C585.164 453.736 590.337 426.044 599.882 399.496C603.745 388.752 608.171 378.582 613.86 368.643C618.862 359.905 624.878 351.446 631.028 343.567C637.005 335.911 643.219 328.431 650.543 321.944C656.487 316.68 663.024 312.095 669.744 307.827C678.279 302.408 686.798 297.12 696.044 292.96C700.85 290.798 705.747 288.862 710.59 286.787C711.462 286.414 712.396 286.052 713.234 285.619C716.03 284.177 715.11 282.006 712.882 280.495" fill="#C1DEE2"/>
<path fill-rule="evenodd" clip-rule="evenodd" d="M635.94 378.659C643.697 378.659 650.599 379.667 657.747 382.75C663.916 385.41 669.539 388.933 674.997 392.767C682.676 398.16 688.724 404.437 692.958 412.754C695.487 417.722 697.342 424.753 695.644 430.172C693.643 436.555 688.149 441.878 680.913 440.753C676.439 440.058 672.337 437.097 668.937 434.309C664.869 430.974 661.612 426.964 658.923 422.511C654.537 415.246 651.959 407.033 648.233 399.442C646.465 395.839 644.757 392.211 642.639 388.787C641.591 387.091 640.474 385.411 638.884 384.151C638.033 383.477 634.445 382.311 635.817 380.797C615.702 381.061 597.881 396.51 594.019 415.633C593.66 417.416 593.379 419.213 593.082 421.006C592.894 422.138 592.97 426.314 591.958 427.038C589.725 428.634 590.663 423.786 590.759 423.088C591.007 421.284 591.271 419.481 591.548 417.682C593.056 407.895 597.413 398.797 604.679 391.817C612.989 383.836 624.2 378.659 635.94 378.659" fill="#89C5CC"/>
<path fill-rule="evenodd" clip-rule="evenodd" d="M77.7413 324.804C97.1063 357.291 119.66 388.748 133.205 424.268C132.659 420.081 132.08 415.899 131.432 411.722C127.996 389.583 123.724 367.605 119.236 345.654C116.95 334.478 114.533 323.342 112.053 312.208C110.72 306.227 109.403 300.243 108.042 294.268C107.712 292.82 107.429 290.292 107.016 287.73C120.179 330.925 132.873 374.152 142.158 418.385C143.376 424.19 144.413 429.985 145.263 435.77C145.553 434.45 145.839 433.13 146.152 431.814C149.909 416.038 155.544 400.387 162.254 385.636C165.462 378.582 169.147 371.682 173.485 365.253C176.19 361.245 182.57 356.481 185.038 352.377C171.541 377.131 166.668 408.104 158.875 435.016C156.973 441.583 155.059 448.14 153.184 454.708C164.936 431.14 183.169 411.776 208.52 403.384C177.834 423.66 159.428 459.168 147.024 495.483C146.984 495.914 146.935 496.345 146.893 496.776C150.543 489.849 155.14 483.584 161.371 479.196C174.707 469.802 189.501 472.538 202.438 480.596C192.285 474.142 173.936 480.019 165.393 486.579C159.277 491.275 154.051 497.574 149.512 503.72C148.424 505.193 146.941 506.912 145.373 508.746C143.176 523.012 139.594 537.179 134.524 551.234C135.361 547.2 134.756 540.748 134.988 537.741C135.013 537.415 135.033 537.09 135.058 536.765C134.288 539.842 133.543 542.885 132.826 545.878C134.251 540.166 135.026 534.203 135.631 528.179C135.786 525.59 135.938 523.001 136.099 520.412C136.048 515.499 135.845 510.566 135.503 505.625C134.29 500.824 132.931 496.295 131.81 492.528C127.766 478.937 121.838 465.917 114.542 453.77C107.884 442.685 99.9156 432.645 90.7162 423.564C85.7569 418.67 80.5668 414.01 75.4497 409.284C73.5994 407.576 70.292 403.375 67.4316 401.186C88.2635 412.67 109.705 425.095 124.902 443.6C123.12 436.758 121.185 430.013 119.138 423.403C108.753 389.869 95.6404 355.113 77.7413 324.804Z" fill="#DDE3E9"/>
<path fill-rule="evenodd" clip-rule="evenodd" d="M98.5547 508.7C98.5547 545.942 101.504 576.132 141.089 576.132C180.674 576.132 183.623 545.942 183.623 508.7" fill="#C5CFD6"/>
<rect x="538.611" y="59.1357" width="6.2245" height="25.9354" rx="3.11225" fill="#DDE3E9"/>
<rect x="553.135" y="42.5371" width="6.2245" height="42.5341" rx="3.11225" fill="#DDE3E9"/>
<rect x="567.658" y="34.2383" width="6.2245" height="50.8334" rx="3.11225" fill="#DDE3E9"/>
<rect x="582.184" y="42.5371" width="6.2245" height="42.5341" rx="3.11225" fill="#DDE3E9"/>
<rect x="596.707" y="25.9385" width="6.2245" height="59.1327" rx="3.11225" fill="#C5CFD6"/>
<path fill-rule="evenodd" clip-rule="evenodd" d="M28.2028 343.654C28.2028 332.098 37.5417 322.64 48.9512 322.64V343.654L34.7718 358.949C30.7383 355.21 28.2028 349.724 28.2028 343.654Z" fill="#F2F2F2"/>
<path fill-rule="evenodd" clip-rule="evenodd" d="M48.4025 343.388H69.3555C69.3555 348.804 67.146 353.879 63.6531 357.567C59.8114 361.601 54.3406 364.136 48.4025 364.136C42.9328 364.136 37.9261 361.948 34.0833 358.489L48.4025 343.388Z" fill="#AFB9C5"/>
<path fill-rule="evenodd" clip-rule="evenodd" d="M69.6992 343.388C69.6992 331.978 60.3604 322.64 48.9509 322.64V343.388H69.6992ZM38.5767 322.64L46.8761 341.313L28.2026 333.014C30.0492 328.173 34.1957 324.486 38.5767 322.64Z" fill="#C5CFD6"/>
<path fill-rule="evenodd" clip-rule="evenodd" d="M703.318 352.91C701.325 355.026 698.501 356.355 695.36 356.355C689.325 356.355 684.432 351.478 684.432 345.462C684.432 339.446 689.325 334.569 695.36 334.569V314.34C678.191 314.34 664.139 328.348 664.139 345.462C664.139 362.577 678.191 376.585 695.36 376.585C704.378 376.585 712.528 372.782 718.084 366.731L703.318 352.91Z" fill="#F2F2F2"/>
<path fill-rule="evenodd" clip-rule="evenodd" d="M695.262 314.34V334.569C701.278 334.569 706.155 339.446 706.155 345.462H726.384C726.384 328.348 712.376 314.34 695.262 314.34Z" fill="#AFB9C5"/>
<path fill-rule="evenodd" clip-rule="evenodd" d="M705.737 345.462C705.737 348.996 704.072 352.138 701.486 354.167L714.207 370.36C721.612 364.563 726.384 355.576 726.384 345.462H705.737Z" fill="#C5CFD6"/>
<path fill-rule="evenodd" clip-rule="evenodd" d="M505.468 66.92C503.935 68.5425 501.762 69.5614 499.346 69.5614C494.704 69.5614 490.941 65.8224 490.941 61.2102C490.941 56.5979 494.704 52.859 499.346 52.859V37.3496C486.14 37.3496 475.33 48.0893 475.33 61.2102C475.33 74.3311 486.14 85.0708 499.346 85.0708C506.284 85.0708 512.553 82.155 516.827 77.5165L505.468 66.92Z" fill="#F2F2F2"/>
<path fill-rule="evenodd" clip-rule="evenodd" d="M499.191 37.3496V52.859C503.804 52.859 507.543 56.5979 507.543 61.2102H523.052C523.052 48.0893 512.312 37.3496 499.191 37.3496Z" fill="#AFB9C5"/>
<path fill-rule="evenodd" clip-rule="evenodd" d="M507.565 61.21C507.565 63.8608 506.316 66.2171 504.377 67.7385L513.917 79.8835C519.471 75.5355 523.05 68.7955 523.05 61.21H507.565Z" fill="#C5CFD6"/>
<path fill-rule="evenodd" clip-rule="evenodd" d="M127.801 85.0564C127.796 85.0668 127.792 85.0772 127.786 85.0896C127.792 85.0792 127.801 85.0377 127.801 85.0564" fill="#C5CFD6"/>
<path fill-rule="evenodd" clip-rule="evenodd" d="M127.791 85.0722C127.791 85.0742 127.789 85.0784 127.789 85.0825C127.789 85.0722 127.807 85.041 127.791 85.0722" fill="#C5CFD6"/>
<path fill-rule="evenodd" clip-rule="evenodd" d="M127.863 84.8966C127.848 84.9381 127.83 84.9776 127.813 85.0191C127.821 84.9983 127.83 84.9817 127.838 84.961C127.622 85.5004 127.759 85.1498 127.863 84.8966" fill="#C5CFD6"/>
<path fill-rule="evenodd" clip-rule="evenodd" d="M127.816 85.0216C127.808 85.0403 127.8 85.061 127.792 85.0797C127.731 85.1959 127.816 85.0216 127.816 85.0216" fill="#C5CFD6"/>
<path fill-rule="evenodd" clip-rule="evenodd" d="M127.792 85.0727C127.792 85.0706 127.792 85.0706 127.794 85.0685C127.792 85.0706 127.792 85.0706 127.792 85.0727" fill="#C5CFD6"/>
<path fill-rule="evenodd" clip-rule="evenodd" d="M127.782 85.0876C127.77 85.1125 127.84 84.9921 127.782 85.0876Z" fill="#C5CFD6"/>
<path fill-rule="evenodd" clip-rule="evenodd" d="M127.791 85.0727L127.795 85.0685C127.793 85.0706 127.793 85.0727 127.791 85.0727" fill="#C5CFD6"/>
<rect x="77.998" y="31.125" width="98.5546" height="65.3572" rx="4.14967" fill="#DDE3E9"/>
<path fill-rule="evenodd" clip-rule="evenodd" d="M115.345 49.7979L86.2969 96.4816H144.392L115.345 49.7979Z" fill="#AFB9C5"/>
<path fill-rule="evenodd" clip-rule="evenodd" d="M143.874 62.2471L118.457 96.4818H169.29L143.874 62.2471Z" fill="#C5CFD6"/>
<path fill-rule="evenodd" clip-rule="evenodd" d="M154.766 62.2477C159.923 62.2477 164.103 58.0675 164.103 52.911C164.103 47.7544 159.923 43.5742 154.766 43.5742C149.61 43.5742 145.43 47.7544 145.43 52.911C145.43 58.0675 149.61 62.2477 154.766 62.2477Z" fill="white"/>
<path fill-rule="evenodd" clip-rule="evenodd" d="M622.635 528.034C622.639 528.044 622.643 528.055 622.65 528.067C622.643 528.057 622.635 528.015 622.635 528.034" fill="#C5CFD6"/>
<path fill-rule="evenodd" clip-rule="evenodd" d="M622.645 528.05C622.645 528.052 622.647 528.056 622.647 528.06C622.647 528.05 622.628 528.019 622.645 528.05" fill="#C5CFD6"/>
<path fill-rule="evenodd" clip-rule="evenodd" d="M622.573 527.874C622.587 527.916 622.606 527.955 622.622 527.997C622.614 527.976 622.606 527.959 622.598 527.939C622.813 528.478 622.676 528.127 622.573 527.874" fill="#C5CFD6"/>
<path fill-rule="evenodd" clip-rule="evenodd" d="M622.619 527.999C622.627 528.018 622.636 528.039 622.644 528.057C622.704 528.173 622.619 527.999 622.619 527.999" fill="#C5CFD6"/>
<path fill-rule="evenodd" clip-rule="evenodd" d="M622.643 528.05C622.643 528.048 622.643 528.048 622.641 528.046C622.643 528.048 622.643 528.048 622.643 528.05" fill="#C5CFD6"/>
<path fill-rule="evenodd" clip-rule="evenodd" d="M622.653 528.065C622.666 528.09 622.595 527.97 622.653 528.065Z" fill="#C5CFD6"/>
<path fill-rule="evenodd" clip-rule="evenodd" d="M622.644 528.05L622.64 528.046C622.642 528.048 622.642 528.05 622.644 528.05" fill="#C5CFD6"/>
<rect width="147.313" height="97.5171" rx="4.14967" transform="matrix(-1 0 0 1 696.299 448.167)" fill="#DDE3E9"/>
<path fill-rule="evenodd" clip-rule="evenodd" d="M641.6 476.177L684.191 545.684H599.009L641.6 476.177Z" fill="#AFB9C5"/>
<path fill-rule="evenodd" clip-rule="evenodd" d="M597.687 494.795L635.34 545.684H560.034L597.687 494.795Z" fill="#C5CFD6"/>
<path fill-rule="evenodd" clip-rule="evenodd" d="M581.665 494.851C573.93 494.851 567.66 488.581 567.66 480.846C567.66 473.111 573.93 466.841 581.665 466.841C589.4 466.841 595.67 473.111 595.67 480.846C595.67 488.581 589.4 494.851 581.665 494.851Z" fill="white"/>
<path fill-rule="evenodd" clip-rule="evenodd" d="M438.237 398.413C444.182 401.999 450.024 403.731 452.766 403.024C459.642 401.25 460.274 376.078 454.954 366.154C449.634 356.23 422.282 351.905 420.904 371.567C420.425 378.391 423.289 384.481 427.519 389.451L419.934 424.832H441.969L438.237 398.413Z" fill="#B28B67"/>
<path fill-rule="evenodd" clip-rule="evenodd" d="M411.295 365.021C410.583 364.315 410.195 363.308 409.859 362.351C409.51 361.357 409.172 360.354 408.94 359.319C408.477 357.253 408.473 354.876 409.946 353.271C411.128 351.985 412.9 351.408 414.537 351.282C415.627 351.198 416.746 351.351 417.791 351.695C418.828 352.036 419.721 352.716 420.726 353.137C420.765 350.91 421.146 348.58 422.275 346.679C423.361 344.849 425.094 343.823 427.066 343.551C429.091 343.272 431.09 343.746 432.903 344.727C433.357 344.973 433.806 345.23 434.236 345.521C434.597 345.765 434.971 346.059 435.394 346.158C435.865 346.269 436.099 345.997 436.405 345.653C436.764 345.249 437.169 344.894 437.597 344.579C439.49 343.187 441.973 342.614 444.166 343.449C445.177 343.833 446.159 344.486 446.845 345.386C447.456 346.188 447.892 347.461 448.735 348.02C449.093 348.257 449.346 347.943 449.672 347.71C450.161 347.361 450.628 346.976 451.123 346.637C451.819 346.159 452.573 345.803 453.379 345.616C454.56 345.342 456.193 345.407 456.53 346.954C456.657 347.536 456.56 348.158 456.519 348.744C456.463 349.548 456.404 350.352 456.334 351.155C456.281 351.765 456.214 352.354 456.099 352.953C456.038 353.273 455.846 353.868 455.983 354.187C456.154 354.587 456.943 354.36 457.28 354.374C457.946 354.401 458.614 354.518 459.23 354.803C459.707 355.024 460.209 355.348 460.41 355.895C460.534 356.232 460.501 356.577 460.443 356.923C460.373 357.338 460.453 357.558 460.505 357.977C461.399 357.536 464.498 356.557 464.888 358.161C465.018 358.695 464.722 359.298 464.497 359.748C464.101 360.538 463.583 361.26 463.052 361.949C461.946 363.385 460.626 364.624 459.206 365.684C460.87 366.424 461.304 368.608 459.863 369.909C459.227 370.484 458.372 370.612 457.569 370.575C457.275 370.561 456.852 370.448 456.621 370.5C456.496 370.527 456.363 370.633 456.191 370.644C455.058 370.722 453.78 370.449 452.672 370.198C450.7 369.749 448.832 368.814 447.307 367.389C446.915 367.024 446.592 366.814 446.065 366.819C445.604 366.824 445.151 366.95 444.69 366.962C443.47 366.993 442.37 366.396 441.237 365.999C441.168 367.531 440.732 369.217 440.106 370.595C439.596 371.719 438.53 371.882 437.482 371.98C434.132 372.296 430.771 371.944 427.416 371.948C430.663 372.683 434.018 372.986 437.236 373.85C438.691 374.24 437.58 375.221 436.958 375.902C435.934 377.021 435.173 378.409 434.644 379.871C433.056 377.799 430.249 376.434 427.762 377.07C425.013 377.774 423.078 381.493 424.836 384.166C425.856 385.718 427.698 386.318 429.231 386.984C428.035 388.229 427.746 390.066 427.026 391.614C426.671 392.378 426.173 393.241 425.379 393.507C425.085 393.605 424.741 393.614 424.509 393.853C424.222 394.15 424.154 394.482 423.787 394.737C422.324 395.754 420.039 395.676 418.743 394.348C417.57 393.147 417.875 391.246 418.854 390.028C417.296 389.378 414.456 388.542 415.075 386.112C411.698 385.887 403.496 380.405 408.03 376.4C405.542 374.992 403.256 371.554 404.854 368.522C406.085 366.188 408.947 365.145 411.295 365.021" fill="#191847"/>
<path fill-rule="evenodd" clip-rule="evenodd" d="M387.451 540.599H458.381L467.675 654.527H362.09L387.451 540.599Z" fill="#C5CFD6"/>
<path fill-rule="evenodd" clip-rule="evenodd" d="M387.451 540.599H409.266L422.323 654.527H362.09L387.451 540.599Z" fill="black" fill-opacity="0.1"/>
<path fill-rule="evenodd" clip-rule="evenodd" d="M497.353 563.169C489.383 580.085 476.928 621.149 476.928 621.149L487.501 625.983C487.501 625.983 514.33 582.818 530.726 553.31C529.962 559.953 529.184 567.432 528.463 575.294C526.755 593.918 528.462 634.154 529.381 645.777C529.959 653.082 539.878 651.552 540.803 645.758C540.96 644.777 541.599 641.332 542.553 636.192C547.229 610.988 559.467 545.025 559.489 528.873C559.498 522.374 546.81 516.536 539.248 521.08C534.053 515.533 524.222 512.336 518.574 521.498C514.983 527.323 506.452 543.859 497.353 563.169Z" fill="#B28B67"/>
<path fill-rule="evenodd" clip-rule="evenodd" d="M477.683 605.947L513.974 519.914C522.668 505.919 547.044 522.762 544.079 530.879C537.348 549.308 503.115 608.968 501.109 614.459L477.683 605.947Z" fill="#1F28CF"/>
<path fill-rule="evenodd" clip-rule="evenodd" d="M478.54 616.317C477.815 615.342 476.424 615.108 475.498 615.895C474.011 617.157 472.003 618.995 471.257 620.287C470.015 622.44 468.35 626.983 468.35 626.983C470.845 628.424 513.196 652.893 513.196 652.893C513.196 652.893 518.281 648.12 514.781 645.483C511.28 642.846 509.004 641.035 509.004 641.035L493.596 619.792C493.253 619.319 492.587 619.223 492.124 619.579L489.005 621.983C489.005 621.983 484.579 621.596 482.399 620.337C481.135 619.606 479.603 617.749 478.54 616.317Z" fill="#E4E4E4"/>
<path fill-rule="evenodd" clip-rule="evenodd" d="M529.842 640.192C528.727 639.709 527.404 640.203 526.995 641.348C526.339 643.185 525.518 645.782 525.518 647.274C525.518 649.759 526.345 654.527 526.345 654.527C529.226 654.527 578.129 654.527 578.129 654.527C578.129 654.527 580.148 647.849 575.799 647.316C571.45 646.784 568.573 646.355 568.573 646.355L544.617 635.667C544.083 635.429 543.458 635.679 543.235 636.22L541.735 639.862C541.735 639.862 537.709 641.742 535.192 641.742C533.732 641.742 531.478 640.899 529.842 640.192Z" fill="#E4E4E4"/>
<path fill-rule="evenodd" clip-rule="evenodd" d="M562.032 535.484C562.032 559.893 550.448 616.829 550.441 622.204L525.517 622.223C525.517 622.223 530.989 546.017 529.398 545.196C527.807 544.375 464.164 551.555 445.077 551.555C417.552 551.555 406.166 534.186 405.242 502.01H459.767C470.868 503.199 528.776 514.887 550.281 518.905C559.488 520.625 562.032 528.759 562.032 535.484Z" fill="#2B44FF"/>
<path fill-rule="evenodd" clip-rule="evenodd" d="M487.625 513.277C470.188 549.617 396.787 525.08 396.787 525.08C396.787 518.783 399.283 512.47 401.904 505.839C404.715 498.73 407.67 491.256 407.846 483.046C408.171 467.942 410.994 422.178 422.772 406.72C422.987 406.022 423.204 405.321 423.425 404.619L424.24 405.003C424.367 404.872 424.495 404.744 424.625 404.619L450.324 408.596C450.324 420.228 457.762 431.257 464.459 441.187C466.088 443.603 467.673 445.953 469.097 448.232C470.961 451.216 473.066 454.254 475.222 457.366C486.143 473.131 498.399 490.824 487.625 513.277Z" fill="#C1DEE2"/>
<path fill-rule="evenodd" clip-rule="evenodd" d="M454.697 506.407C456.416 497.532 457.531 491.606 458.042 488.631C471.733 504.113 479.643 511.944 481.77 512.124C485.772 512.461 488.729 508.91 489.571 509.909C490.963 514.043 487.032 524.392 479.519 525.897C475.931 526.616 470.38 519.212 468.092 516.589C467.193 515.557 462.728 512.163 454.697 506.407V506.407ZM478.346 459.086C481.895 459.086 483.801 460.554 485.9 463.517C487.998 466.479 489.984 480.45 486.615 480.45C483.246 480.45 469.13 475.049 469.13 471.418C469.13 467.788 478.762 466.25 478.762 463.517C478.762 460.783 474.797 459.086 478.346 459.086Z" fill="#B28B67"/>
<path fill-rule="evenodd" clip-rule="evenodd" d="M418.615 421.825C409.604 459.43 413.278 491.146 447.532 519.915C447.13 521.36 446.888 522.223 446.888 522.223C406.681 494.102 406.659 460.023 418.615 421.825Z" fill="black" fill-opacity="0.2"/>
<path fill-rule="evenodd" clip-rule="evenodd" d="M697.037 340.435C691.082 344.024 685.232 345.758 682.485 345.05C675.599 343.275 674.966 318.083 680.294 308.152C685.623 298.22 713.014 293.891 714.395 313.569C714.874 320.398 712.007 326.493 707.77 331.466L715.367 366.876H693.299L697.037 340.435Z" fill="#B28B67"/>
<path fill-rule="evenodd" clip-rule="evenodd" d="M692.873 296.705C695.781 296.228 703.612 295.901 705.057 295.901C705.979 295.901 706.98 296.112 707.526 295.264C707.974 294.57 707.81 293.397 707.943 292.591C708.099 291.656 708.319 290.732 708.542 289.811C709.176 287.19 710.135 284.697 711.477 282.355C713.995 277.963 717.683 274.522 722.34 272.52C727.482 270.31 733.301 269.804 738.832 270.252C744.751 270.732 750.109 272.686 755.698 274.525C761.024 276.277 766.602 276.967 772.172 276.111C777.784 275.249 782.024 272.207 786.758 269.32C791.604 266.365 797.142 264.432 802.87 264.876C808.218 265.291 813.147 267.499 817.569 270.449C821.706 273.208 825.119 276.529 827.047 281.202C829.12 286.228 829.118 291.746 825.709 296.189C820.767 302.628 811.592 304.293 803.959 304.128C799.544 304.032 795.208 303.226 791.04 301.76C785.481 299.805 780.678 296.491 775.477 293.802C773.037 292.541 770.514 291.504 767.87 290.758C765.304 290.033 762.776 289.701 760.453 291.251C757.995 292.891 755.793 294.502 752.982 295.528C750.284 296.513 747.427 297.064 744.554 297.042C738.963 296.998 733.451 295.256 728.021 294.089C723.592 293.138 718.854 292.19 714.34 293.104C712.456 293.486 709.704 294.274 709.024 296.232C720.476 298.307 724.973 312.47 721.745 322.867C720.002 328.478 709.528 335.038 705.456 332.088C702.876 330.219 704.442 327.766 705.456 326.146C707.397 323.044 708.061 319.06 704.469 316.9C701.371 315.038 698.113 319.461 698.052 319.456C697.2 319.389 689.842 315.227 684.772 309.154C679.77 309.451 679.011 306.153 680.206 303.456C681.4 300.759 688.854 297.365 692.873 296.705Z" fill="#191847"/>
<path fill-rule="evenodd" clip-rule="evenodd" d="M730.049 444.522L695.499 557.695L678.762 653.941H665.639L683.324 444.522H730.049Z" fill="#997659"/>
<path fill-rule="evenodd" clip-rule="evenodd" d="M742.408 444.522C740.061 506.66 742.823 538.712 743.348 544.358C743.873 550.003 751.065 586.609 768.092 655.836L754.108 651.024C727.2 587.532 718.03 554.535 714.944 546.197C711.858 537.86 703.661 503.969 690.354 444.522H742.408Z" fill="#B28B67"/>
<path fill-rule="evenodd" clip-rule="evenodd" d="M765.204 650.031C766.319 649.548 767.643 650.043 768.051 651.188C768.708 653.028 769.529 655.628 769.529 657.122C769.529 659.61 768.702 664.384 768.702 664.384C765.821 664.384 716.918 664.384 716.918 664.384C716.918 664.384 714.899 657.698 719.248 657.164C723.597 656.631 726.473 656.202 726.473 656.202L750.429 645.501C750.963 645.263 751.589 645.513 751.812 646.054L753.312 649.701C753.312 649.701 757.338 651.583 759.855 651.583C761.315 651.583 763.568 650.74 765.204 650.031Z" fill="#E4E4E4"/>
<path fill-rule="evenodd" clip-rule="evenodd" d="M678.899 650.031C680.015 649.548 681.338 650.043 681.747 651.188C682.403 653.028 683.225 655.628 683.225 657.122C683.225 659.61 682.397 664.384 682.397 664.384C679.516 664.384 630.613 664.384 630.613 664.384C630.613 664.384 628.594 657.698 632.943 657.164C637.292 656.631 640.169 656.202 640.169 656.202L664.125 645.501C664.659 645.263 665.284 645.513 665.507 646.054L667.007 649.701C667.007 649.701 671.033 651.583 673.551 651.583C675.01 651.583 677.263 650.74 678.899 650.031Z" fill="#E4E4E4"/>
<path fill-rule="evenodd" clip-rule="evenodd" d="M734.641 444.522L719.951 502.183H675.081L681.771 444.522H734.641Z" fill="#69A1AC"/>
<path fill-rule="evenodd" clip-rule="evenodd" d="M742.904 444.522C750.154 466.298 745.658 502.183 745.658 502.183H699.871L687.28 444.522H742.904Z" fill="#89C5CC"/>
<path fill-rule="evenodd" clip-rule="evenodd" d="M792.866 473.524C789.438 468.496 766.332 400.824 766.332 400.824L746.404 403.701C746.404 403.701 779.537 474.169 781.43 477.446C783.889 481.704 781.711 488.698 780.234 493.44C780.006 494.174 779.794 494.854 779.619 495.461C782.718 496.354 783.898 494.582 785.141 492.715C786.546 490.606 788.032 488.374 792.458 489.72C794.168 490.239 795.811 490.907 797.416 491.56C802.961 493.814 808.054 495.885 813.906 491.038C814.834 490.27 815.616 487.758 812.668 486.296C805.324 482.651 794.541 475.983 792.866 473.524ZM621.132 470.027L643.395 441.284L654.042 454.877L629.438 474.432C624.199 485.953 620.892 491.077 619.515 489.806C618.355 488.734 618.622 487.342 618.868 486.061C619.06 485.062 619.239 484.131 618.72 483.468C617.536 481.956 612.283 483.656 607.367 485.481C602.452 487.307 603.276 484.655 604.171 483.206C608.422 478.67 614.076 474.277 621.132 470.027Z" fill="#B28B67"/>
<path fill-rule="evenodd" clip-rule="evenodd" d="M697.639 352.904L689.576 352.662C683.323 398.172 623.788 436.961 622.175 453.872C621.584 460.073 626.336 462.498 624.358 464.64L635.644 470.68C637.093 468.418 641.31 471.59 648.671 467.922C656.031 464.254 704.922 404.727 697.639 352.904Z" fill="#DB2721"/>
<path fill-rule="evenodd" clip-rule="evenodd" d="M709.898 341.897C712.139 341.421 714.343 342.852 714.82 345.093L715.842 349.897C732.26 359.198 773.765 388.05 792.234 450.023C794.174 456.533 792.856 460.351 791.804 463.402C791.084 465.489 790.488 467.216 791.143 469.201L778.268 474.774C778.056 473.27 776.208 472.364 773.822 471.194C770.354 469.493 765.752 467.236 763.4 461.778C761.171 456.605 758.071 450.189 754.444 443.077C755.592 453.011 754.991 462.38 751.953 470.497C744.375 490.749 682.397 478.418 673.527 460.09C668.794 450.31 672.259 441.054 676.842 428.812C682.658 413.275 690.275 392.927 685.215 360.594L683.34 351.78C682.864 349.539 684.294 347.336 686.536 346.859L709.898 341.897Z" fill="#FF4133"/>
<path fill-rule="evenodd" clip-rule="evenodd" d="M269.864 361.686C275.818 365.275 281.669 367.009 284.415 366.301C291.301 364.526 291.934 339.334 286.606 329.403C281.278 319.471 253.886 315.142 252.505 334.82C252.026 341.649 254.894 347.744 259.13 352.717L251.533 388.127H273.601L269.864 361.686Z" fill="#B28B67"/>
<path fill-rule="evenodd" clip-rule="evenodd" d="M270.967 336.994C272.876 334.151 274.709 331.983 277.093 330.724C286.794 330.878 287.93 329.138 287.93 323.276C286.363 322.155 280.834 320.267 274.643 319.736C271.484 318.832 267.742 319.002 264.138 320.51C259.688 321.772 255.92 324.491 254.256 329.582C248.235 339.973 252.805 350.789 258.964 354.484C260.603 352.542 262.034 350.66 263.31 348.858C262.285 347.856 261.648 346.458 261.648 344.911C261.648 341.864 264.118 339.394 267.165 339.394C267.389 339.394 267.61 339.408 267.827 339.433C267.964 343.243 268.528 356.131 270.01 360.608C271.757 365.886 281.954 367.182 285.51 367.182C288.581 367.182 288.477 364.273 288.402 362.189C288.391 361.889 288.381 361.605 288.381 361.351C288.381 360.818 287.688 360.82 286.905 360.821C285.889 360.823 284.721 360.825 284.721 359.66C284.721 358.389 286.478 357.414 288.049 356.542C289.03 355.997 289.938 355.493 290.304 354.982C291.456 353.368 291.845 351.192 290.106 351.192C289.155 351.192 287.851 351.74 286.282 352.399C283.913 353.394 280.941 354.643 277.671 354.643C272.275 354.643 270.986 337.258 270.967 336.994Z" fill="#191847"/>
<path fill-rule="evenodd" clip-rule="evenodd" d="M236.852 465.773L271.402 578.946L288.139 675.192H301.261L283.576 465.773H236.852Z" fill="#997659"/>
<path fill-rule="evenodd" clip-rule="evenodd" d="M224.492 465.773C226.839 527.911 224.077 559.963 223.552 565.609C223.027 571.254 215.835 607.86 198.809 677.087L212.792 672.275C239.701 608.783 248.87 575.786 251.956 567.448C255.042 559.111 263.239 525.22 276.547 465.773H224.492Z" fill="#B28B67"/>
<path fill-rule="evenodd" clip-rule="evenodd" d="M201.697 671.282C200.581 670.799 199.258 671.294 198.849 672.439C198.192 674.279 197.371 676.879 197.371 678.373C197.371 680.861 198.199 685.635 198.199 685.635C201.08 685.635 249.983 685.635 249.983 685.635C249.983 685.635 252.001 678.949 247.652 678.415C243.303 677.882 240.427 677.453 240.427 677.453L216.471 666.752C215.937 666.514 215.311 666.764 215.089 667.305L213.588 670.952C213.588 670.952 209.562 672.834 207.045 672.834C205.586 672.834 203.333 671.991 201.697 671.282Z" fill="#E4E4E4"/>
<path fill-rule="evenodd" clip-rule="evenodd" d="M288.002 671.282C286.886 670.799 285.562 671.294 285.154 672.439C284.497 674.279 283.676 676.879 283.676 678.373C283.676 680.861 284.503 685.635 284.503 685.635C287.384 685.635 336.288 685.635 336.288 685.635C336.288 685.635 338.306 678.949 333.957 678.415C329.608 677.882 326.732 677.453 326.732 677.453L302.776 666.752C302.242 666.514 301.616 666.764 301.393 667.305L299.893 670.952C299.893 670.952 295.867 672.834 293.35 672.834C291.89 672.834 289.637 671.991 288.002 671.282Z" fill="#E4E4E4"/>
<path fill-rule="evenodd" clip-rule="evenodd" d="M232.26 465.773L246.95 523.434H291.819L285.129 465.773H232.26Z" fill="#69A1AC"/>
<path fill-rule="evenodd" clip-rule="evenodd" d="M223.997 465.773C216.746 487.549 221.242 523.434 221.242 523.434H267.03L279.62 465.773H223.997Z" fill="#89C5CC"/>
<path fill-rule="evenodd" clip-rule="evenodd" d="M341.235 487.547L318.971 458.804L308.325 472.397L332.928 491.952C338.167 503.472 341.475 508.597 342.852 507.326C344.012 506.253 343.745 504.862 343.499 503.58C343.307 502.582 343.128 501.65 343.647 500.988C344.831 499.475 350.084 501.175 354.999 503.001C359.915 504.827 359.091 502.175 358.195 500.725C353.944 496.19 348.291 491.797 341.235 487.547ZM184.069 502.674C187.497 497.645 203.985 446.256 203.985 446.256L223.003 449.005C223.003 449.005 197.398 503.318 195.505 506.596C193.046 510.853 195.224 517.847 196.701 522.59C196.929 523.323 197.141 524.003 197.316 524.611C194.217 525.503 193.037 523.732 191.793 521.865C190.389 519.755 188.903 517.523 184.476 518.869C182.766 519.389 181.123 520.057 179.518 520.709C173.974 522.964 168.881 525.034 163.029 520.188C162.101 519.42 161.319 516.908 164.267 515.445C171.611 511.801 182.393 505.132 184.069 502.674Z" fill="#B28B67"/>
<path fill-rule="evenodd" clip-rule="evenodd" d="M269.262 374.155L277.325 373.913C286.13 409.621 305.48 443.662 335.376 476.035L305.501 503.402C277.255 459.32 262.14 415.811 269.262 374.155Z" fill="#191847"/>
<path fill-rule="evenodd" clip-rule="evenodd" d="M221.057 468.101L291.169 477.954C291.169 477.954 275.115 415.393 280.924 374.058L260.217 367.94C239.845 392.289 230.534 424.483 221.057 468.101Z" fill="#DDE3E9"/>
<path fill-rule="evenodd" clip-rule="evenodd" d="M259.767 367.893L259.752 367.876C259.752 367.876 204.776 408.343 184.972 493.617L219.145 498.419C219.402 494.577 219.757 490.795 220.2 487.08L266.093 493.53C266.093 493.53 268.789 411.513 271.725 384.737L268.664 369.441C268.664 369.441 263.624 368.507 261.158 368.073L259.778 367.879C259.774 367.884 259.771 367.888 259.767 367.893Z" fill="#2F3676"/>
<path fill-rule="evenodd" clip-rule="evenodd" d="M220.158 487.439C222.059 471.255 225.621 456.309 229.94 442.937C228.905 459.38 228.769 479.319 232.943 489.236L220.158 487.439Z" fill="black" fill-opacity="0.1"/>
<path fill-rule="evenodd" clip-rule="evenodd" d="M234.272 460.69L258.413 453.358L256.935 463.875L234.272 460.69Z" fill="white" fill-opacity="0.2"/>
<defs>
<clipPath id="clip0_267_10449">
<rect width="684.382" height="222.756" fill="white" transform="translate(40.3203 341.511)"/>
</clipPath>
<clipPath id="clip1_267_10449">
<rect width="164.949" height="313.3" fill="white" transform="translate(142.318 50.8359)"/>
</clipPath>
<clipPath id="clip2_267_10449">
<rect width="135.902" height="211.633" fill="white" transform="translate(156.842 79.8838)"/>
</clipPath>
<clipPath id="clip3_267_10449">
<rect width="135.902" height="56.0205" fill="white" transform="translate(156.842 79.8838)"/>
</clipPath>
<clipPath id="clip4_267_10449">
<rect width="75.7314" height="22.4082" fill="white" transform="translate(197.301 96.6904)"/>
</clipPath>
<clipPath id="clip5_267_10449">
<rect width="135.902" height="43.5715" fill="white" transform="translate(156.842 144.203)"/>
</clipPath>
<clipPath id="clip6_267_10449">
<rect width="75.7314" height="17.4286" fill="white" transform="translate(197.301 157.274)"/>
</clipPath>
<clipPath id="clip7_267_10449">
<rect width="135.902" height="43.5715" fill="white" transform="translate(156.842 196.074)"/>
</clipPath>
<clipPath id="clip8_267_10449">
<rect width="75.7314" height="17.4286" fill="white" transform="translate(197.301 209.146)"/>
</clipPath>
<clipPath id="clip9_267_10449">
<rect width="135.902" height="43.5715" fill="white" transform="translate(156.842 247.945)"/>
</clipPath>
<clipPath id="clip10_267_10449">
<rect width="75.7314" height="17.4286" fill="white" transform="translate(197.301 261.017)"/>
</clipPath>
<clipPath id="clip11_267_10449">
<rect width="214.745" height="313.3" fill="white" transform="translate(160.992 77.8086)"/>
</clipPath>
<clipPath id="clip12_267_10449">
<rect width="135.902" height="211.633" fill="white" transform="translate(225.312 106.856)"/>
</clipPath>
<clipPath id="clip13_267_10449">
<rect width="135.902" height="56.0205" fill="white" transform="translate(225.312 106.856)"/>
</clipPath>
<clipPath id="clip14_267_10449">
<rect width="75.7314" height="22.4082" fill="white" transform="translate(234.648 123.663)"/>
</clipPath>
<clipPath id="clip15_267_10449">
<rect width="135.902" height="43.5715" fill="white" transform="translate(225.312 171.177)"/>
</clipPath>
<clipPath id="clip16_267_10449">
<rect width="75.7314" height="17.4286" fill="white" transform="translate(265.771 184.247)"/>
</clipPath>
<clipPath id="clip17_267_10449">
<rect width="135.902" height="43.5715" fill="white" transform="translate(225.312 223.047)"/>
</clipPath>
<clipPath id="clip18_267_10449">
<rect width="75.7314" height="17.4286" fill="white" transform="translate(234.648 236.118)"/>
</clipPath>
<clipPath id="clip19_267_10449">
<rect width="135.902" height="43.5715" fill="white" transform="translate(225.312 274.918)"/>
</clipPath>
<clipPath id="clip20_267_10449">
<rect width="75.7314" height="17.4286" fill="white" transform="translate(265.771 287.989)"/>
</clipPath>
<clipPath id="clip21_267_10449">
<rect width="347.534" height="358.946" fill="white" transform="translate(279.258 103.744)"/>
</clipPath>
<clipPath id="clip22_267_10449">
<rect width="72.6191" height="201.259" fill="white" transform="translate(537.574 240.684)"/>
</clipPath>
<clipPath id="clip23_267_10449">
<rect width="35.2722" height="163.912" fill="white" transform="translate(556.248 259.356)"/>
</clipPath>
<clipPath id="clip24_267_10449">
<rect width="233.419" height="292.551" fill="white" transform="translate(295.855 149.391)"/>
</clipPath>
<clipPath id="clip25_267_10449">
<rect width="233.419" height="48.7586" fill="white" transform="translate(295.855 149.391)"/>
</clipPath>
<clipPath id="clip26_267_10449">
<rect width="173.249" height="19.5034" fill="white" transform="translate(305.193 164.018)"/>
</clipPath>
<clipPath id="clip27_267_10449">
<rect width="233.419" height="40.4592" fill="white" transform="translate(295.855 206.448)"/>
</clipPath>
<clipPath id="clip28_267_10449">
<rect width="173.249" height="16.1837" fill="white" transform="translate(305.193 218.587)"/>
</clipPath>
<clipPath id="clip29_267_10449">
<rect width="233.419" height="40.4592" fill="white" transform="translate(295.855 255.207)"/>
</clipPath>
<clipPath id="clip30_267_10449">
<rect width="173.249" height="16.1837" fill="white" transform="translate(305.193 267.345)"/>
</clipPath>
<clipPath id="clip31_267_10449">
<rect width="233.419" height="40.4592" fill="white" transform="translate(295.855 401.482)"/>
</clipPath>
<clipPath id="clip32_267_10449">
<rect width="173.249" height="16.1837" fill="white" transform="translate(305.193 413.621)"/>
</clipPath>
<clipPath id="clip33_267_10449">
<rect width="233.419" height="40.4592" fill="white" transform="translate(295.855 352.725)"/>
</clipPath>
<clipPath id="clip34_267_10449">
<rect width="173.249" height="16.1837" fill="white" transform="translate(305.193 364.862)"/>
</clipPath>
<clipPath id="clip35_267_10449">
<rect width="233.419" height="40.4592" fill="white" transform="translate(295.855 303.966)"/>
</clipPath>
<clipPath id="clip36_267_10449">
<rect width="173.249" height="16.1837" fill="white" transform="translate(305.193 316.104)"/>
</clipPath>
</defs>
</svg>
